<?xml version="1.0" encoding="UTF-8"?>
<svg width="526px" height="85px" viewBox="0 0 526 85" version="1.1" xmlns="http://www.w3.org/2000/svg" xmlns:xlink="http://www.w3.org/1999/xlink">
    <!-- Generator: Sketch 48.2 (47327) - http://www.bohemiancoding.com/sketch -->
    <title>cwru-formal-logo-white-no-tag</title>
    <desc>Created with Sketch.</desc>
    <defs>
        <polygon id="path-1" points="0.06 0.525188608 525.085203 0.525188608 525.085203 84.94 0.06 84.94"></polygon>
    </defs>
    <g id="Page-1" stroke="none" stroke-width="1" fill="none" fill-rule="evenodd">
        <g id="cwru-formal-logo-white-no-tag">
            <path d="M98.804,48.266 C86.82,48.266 79.349,40.221 79.349,31.247 C79.349,22.635 87.496,12.88 99.013,12.88 C103.89,12.88 109.027,14.85 110.115,15.683 C110.48,15.994 110.995,19.729 111.102,22.945 C111.102,23.203 110.271,23.152 110.218,22.996 C109.337,18.951 105.499,14.437 97.766,14.437 C89.986,14.437 84.121,19.935 84.121,29.325 C84.121,40.793 91.853,46.604 99.273,46.604 C104.667,46.604 110.011,43.387 110.427,38.094 C110.427,37.94 111.413,37.885 111.413,38.197 C111.256,41.413 110.736,45.149 110.326,45.46 C108.455,46.862 105.187,48.266 98.804,48.266" id="Fill-1" fill="#FFFFFE"></path>
            <path d="M120.645,36.275 L127.859,36.275 L124.642,27.562 L120.645,36.275 Z M127.859,47.434 C127.546,47.536 127.704,46.448 127.859,46.448 C129.622,46.236 130.711,46.497 130.711,45.46 C130.711,44.268 130.038,42.557 129.363,40.583 L128.427,37.834 L120.025,37.834 L118.832,40.583 C117.846,42.868 117.275,44.371 117.275,45.41 C117.275,46.291 118.259,46.291 119.922,46.448 C120.181,46.448 120.181,47.536 119.868,47.434 C118.677,47.279 117.066,47.225 115.406,47.225 C113.175,47.225 112.813,47.225 111.102,47.434 C110.791,47.486 110.946,46.448 111.102,46.448 C113.694,46.236 115.044,44.838 117.016,40.482 L125.627,21.647 C125.731,21.389 126.248,21.336 126.354,21.647 L133.825,40.482 C135.69,44.665 135.411,46.167 138.518,46.448 C138.672,46.462 138.778,47.536 138.465,47.434 C137.219,47.279 136.263,47.225 134.552,47.225 C132.319,47.225 129.519,47.225 127.859,47.434 Z" id="Fill-2" fill="#FFFFFE"></path>
            <path d="M139.564,45.757 C139.344,45.616 139.258,42.709 139.189,39.957 C139.168,39.695 140.105,39.723 140.115,39.827 C140.75,43.732 143.075,46.662 147.11,46.33 C149.901,46.098 151.677,44.283 151.47,41.802 C150.935,35.338 139.563,36.283 138.975,29.199 C138.679,25.631 141.579,21.694 146.336,21.299 C148.611,21.113 150.115,21.665 151.524,22.327 C151.852,22.51 152.439,24.594 152.66,27.232 C152.67,27.387 151.636,27.473 151.625,27.318 C150.925,24.513 148.899,22.703 146.107,22.932 C143.679,23.134 141.966,24.474 142.164,26.853 C142.678,33.058 153.832,31.979 154.45,39.423 C154.801,43.661 151.796,47.605 146.884,48.014 C144.038,48.251 141.721,47.295 139.564,45.757" id="Fill-3" fill="#FFFFFE"></path>
            <path d="M173.275,47.434 C171.825,47.434 169.385,47.225 166.479,47.225 C162.536,47.225 157.815,47.225 154.912,47.434 C154.602,47.434 154.755,46.448 154.912,46.448 C158.855,45.981 159.216,45.46 159.216,40.532 L159.216,28.807 C159.216,23.88 158.855,23.257 154.912,22.841 C154.755,22.841 154.602,21.751 154.912,21.803 C157.815,22.062 162.381,22.115 166.324,22.115 C169.127,22.115 171.825,22.01 174.21,21.803 C173.951,22.635 173.951,23.723 173.951,24.5 C173.951,24.918 173.898,26.057 173.951,26.316 C173.951,26.422 172.965,26.473 172.965,26.371 C172.655,24.656 172.032,23.829 167.001,23.829 L163.627,23.829 C163.47,24.711 163.42,26.159 163.42,28.6 L163.42,33.373 L166.012,33.373 C170.372,33.373 170.683,33.268 171.099,31.607 C171.099,31.506 172.082,31.451 172.032,31.713 C171.876,32.285 171.825,33.891 171.825,34.772 C171.825,35.24 171.825,36.641 171.825,37.004 C171.926,37.057 170.837,37.108 170.837,37.057 C170.476,35.033 170.163,34.879 166.012,34.879 L163.42,34.879 L163.42,40.014 C163.42,44.994 163.679,45.46 165.442,45.46 L167.465,45.46 C173.432,45.46 173.589,44.631 174.159,42.092 C174.159,42.037 175.197,42.037 175.197,42.191 C175.04,43.18 174.624,45.721 174.367,46.497 C174.21,47.279 173.951,47.434 173.275,47.434" id="Fill-4" fill="#FFFFFE"></path>
            <path d="M320.951,34.714 C320.277,34.714 319.967,34.659 319.5,34.659 L319.5,28.435 C319.5,25.632 319.604,24.129 319.813,23.401 C320.381,23.352 320.538,23.301 321.105,23.301 C325.622,23.301 328.112,24.856 328.112,29.215 C328.112,32.74 326.09,34.714 320.951,34.714 Z M364.647,21.844 C363.504,22.004 361.74,22.106 360.082,22.106 C357.799,22.106 356.501,22.106 354.945,21.844 C354.631,21.742 354.631,22.779 354.892,22.834 C358.263,23.194 358.783,24.337 358.783,28.798 L358.783,40.884 L340.675,22.157 C338.445,22.157 335.435,22.106 333.828,21.844 C333.517,21.742 333.619,22.834 333.776,22.834 C335.538,23.041 338.809,25.428 338.809,27.191 L338.809,40.525 C338.809,44.762 338.141,46.009 335.38,46.274 C335.317,46.285 334.955,46.301 334.692,46.115 C328.775,41.262 328.846,38.158 327.454,34.609 C330.516,33.312 332.383,30.77 332.383,28.178 C332.383,24.025 328.642,22.113 321.642,21.795 C317.67,21.613 313.435,21.455 311.111,21.883 C310.8,21.94 311.06,22.922 311.268,22.816 C311.838,22.713 312.324,22.793 312.737,22.793 C314.553,22.793 315.365,24.282 315.365,28.798 L315.365,40.525 C315.365,45.453 314.744,46.074 311.371,46.436 C311.215,46.436 311.06,47.527 311.371,47.424 C313.033,47.216 315.574,47.216 317.858,47.216 C319.517,47.216 322.162,47.267 323.355,47.424 C323.667,47.527 323.563,46.436 323.41,46.436 C319.877,46.124 319.517,45.191 319.517,40.525 L319.517,36.164 C319.983,36.217 320.242,36.217 321.021,36.217 C321.8,36.217 322.992,36.063 323.925,35.909 C325.541,41.682 331.242,46.565 333.795,47.396 C333.841,47.411 334.138,47.441 334.138,47.441 L334.838,47.416 C334.848,47.416 338.188,47.216 340.468,47.216 C342.076,47.216 343.479,47.267 344.671,47.424 C344.982,47.527 344.879,46.436 344.776,46.436 C341.196,46.124 340.833,44.676 340.833,40.525 L340.833,28.018 L360.182,47.684 C360.497,47.993 361.117,47.787 361.117,47.633 C360.908,45.97 360.858,42.443 360.858,40.525 L360.858,28.798 C360.858,24.648 361.171,23.09 364.8,22.834 C364.908,22.834 365.166,21.795 364.647,21.844 Z" id="Fill-5" fill="#FFFFFE"></path>
            <path d="M250.367,45.963 C250.154,45.812 250.197,44.816 250.282,42.062 C250.276,41.805 251.168,41.895 251.216,41.986 C252.874,45.408 253.877,46.502 257.724,46.33 C259.983,46.225 262.3,44.547 262.235,42.057 C262.074,35.574 250.665,35.861 250.485,28.756 C250.395,25.178 253.517,21.413 258.289,21.293 C260.572,21.235 262.04,21.874 263.408,22.619 C263.726,22.816 264.193,24.934 264.258,27.58 C264.263,27.736 263.228,27.763 263.222,27.604 C262.684,24.766 260.767,22.841 257.967,22.912 C255.529,22.973 253.743,24.21 253.804,26.598 C253.962,32.82 265.16,32.385 265.345,39.852 C265.456,44.104 262.332,47.871 257.402,47.996 C254.551,48.068 252.431,47.621 250.367,45.963" id="Fill-6" fill="#FFFFFE"></path>
            <path d="M215.148,47.889 C215.045,48.151 214.424,48.254 214.268,47.84 L206.433,25.842 L196.732,47.889 C196.629,48.151 195.955,48.254 195.798,47.84 L185.785,22.834 C183.293,16.607 182.464,14.841 178.366,14.479 C178.108,14.479 177.9,13.545 178.418,13.596 C179.869,13.807 181.945,13.906 183.97,13.906 C186.77,13.906 190.247,13.855 192.271,13.596 C192.788,13.545 192.477,14.479 192.322,14.479 C189.937,14.688 188.637,15 188.637,16.396 C188.637,17.489 189.83,21.068 190.507,22.729 L197.924,41.198 L205.605,23.455 L205.344,22.834 C202.802,16.762 202.233,14.841 198.291,14.479 C198.132,14.479 197.924,13.545 198.34,13.596 C199.845,13.807 201.869,13.906 203.894,13.906 C206.693,13.906 210.637,13.855 212.659,13.596 C213.076,13.494 212.918,14.479 212.763,14.479 C209.546,14.738 208.508,15.101 208.508,16.658 C208.508,17.801 209.028,19.666 210.064,22.729 L216.343,41.198 L223.764,22.469 C224.955,19.406 225.628,17.801 225.628,16.451 C225.628,15.154 224.801,14.738 222.257,14.479 C222.101,14.479 221.791,13.545 222.31,13.596 C223.813,13.807 225.372,13.906 227.447,13.906 C230.3,13.906 230.246,13.855 232.322,13.596 C232.737,13.494 232.531,14.479 232.376,14.479 C229.107,14.789 228.07,17.021 225.628,22.834 L215.148,47.889" id="Fill-7" fill="#FFFFFE"></path>
            <path d="M246.274,47.424 C244.823,47.424 242.386,47.216 239.479,47.216 C235.537,47.216 230.816,47.216 227.91,47.424 C227.598,47.424 227.755,46.436 227.91,46.436 C231.853,45.97 232.215,45.453 232.215,40.525 L232.215,28.798 C232.215,23.871 231.853,23.247 227.91,22.834 C227.755,22.834 227.598,21.742 227.91,21.795 C230.816,22.053 235.38,22.106 239.322,22.106 C242.127,22.106 244.823,22.004 247.21,21.795 C246.953,22.624 246.953,23.713 246.953,24.491 C246.953,24.904 246.9,26.047 246.953,26.309 C246.953,26.413 245.964,26.465 245.964,26.359 C245.653,24.648 245.031,23.816 240,23.816 L236.626,23.816 C236.472,24.699 236.419,26.152 236.419,28.591 L236.419,33.363 L239.014,33.363 C243.369,33.363 243.682,33.26 244.097,31.602 C244.097,31.496 245.084,31.445 245.031,31.702 C244.877,32.272 244.823,33.883 244.823,34.767 C244.823,35.232 244.823,36.632 244.823,36.995 C244.926,37.047 243.838,37.1 243.838,37.047 C243.476,35.024 243.163,34.869 239.014,34.869 L236.419,34.869 L236.419,40.003 C236.419,44.986 236.679,45.453 238.441,45.453 L240.466,45.453 C246.431,45.453 246.588,44.623 247.157,42.079 C247.157,42.026 248.194,42.026 248.194,42.182 C248.04,43.168 247.626,45.711 247.365,46.49 C247.21,47.267 246.953,47.424 246.274,47.424" id="Fill-8" fill="#FFFFFE"></path>
            <path d="M288.567,26.98 C288.567,27.139 287.633,27.086 287.633,26.98 C287.268,25.272 286.559,24.078 282.406,24.078 L279.621,24.078 L279.621,40.525 C279.621,45.141 279.934,46.124 283.564,46.436 C283.719,46.436 283.824,47.473 283.408,47.424 C282.215,47.267 279.567,47.216 277.909,47.216 C275.68,47.216 273.135,47.216 271.526,47.424 C271.109,47.527 271.32,46.436 271.476,46.436 C274.898,46.074 275.418,45.399 275.418,40.525 L275.418,24.078 L272.422,24.078 C268.43,24.078 267.509,25.218 266.992,27.031 C266.786,27.086 266.003,27.086 266.058,26.93 C266.213,26.102 266.353,24.129 266.316,23.041 C266.31,22.804 266.213,22.375 266.109,21.912 C266.073,21.751 266.916,21.758 267.043,21.863 C267.846,22.514 269.147,22.255 272.422,22.261 L282.406,22.261 C285.553,22.255 287.469,22.514 287.892,21.863 C287.98,21.721 288.93,21.758 288.825,21.965 C288.618,22.795 288.513,23.247 288.513,24.544 C288.513,25.166 288.513,26.465 288.567,26.98" id="Fill-9" fill="#FFFFFE"></path>
            <path d="M308.178,47.424 C306.726,47.424 304.288,47.216 301.379,47.216 C297.438,47.216 292.717,47.216 289.811,47.424 C289.502,47.424 289.655,46.436 289.811,46.436 C293.755,45.97 294.118,45.453 294.118,40.525 L294.118,28.798 C294.118,23.871 293.755,23.247 289.811,22.834 C289.655,22.834 289.502,21.742 289.811,21.795 C292.717,22.053 297.281,22.106 301.225,22.106 C304.026,22.106 306.726,22.004 309.113,21.795 C308.851,22.624 308.851,23.713 308.851,24.491 C308.851,24.904 308.799,26.047 308.851,26.309 C308.851,26.413 307.865,26.465 307.865,26.359 C307.556,24.648 306.931,23.816 301.9,23.816 L298.527,23.816 C298.371,24.699 298.317,26.152 298.317,28.591 L298.317,33.363 L300.913,33.363 C305.273,33.363 305.583,33.26 305.998,31.602 C305.998,31.496 306.983,31.445 306.931,31.702 C306.775,32.272 306.726,33.883 306.726,34.767 C306.726,35.232 306.726,36.632 306.726,36.995 C306.829,37.047 305.738,37.1 305.738,37.047 C305.375,35.024 305.064,34.869 300.913,34.869 L298.317,34.869 L298.317,40.003 C298.317,44.986 298.58,45.453 300.343,45.453 L302.365,45.453 C308.333,45.453 308.49,44.623 309.06,42.079 C309.06,42.026 310.096,42.026 310.096,42.182 C309.941,43.168 309.525,45.711 309.267,46.49 C309.113,47.267 308.851,47.424 308.178,47.424" id="Fill-10" fill="#FFFFFE"></path>
            <path d="M422.404,45.972 C422.193,45.824 422.233,44.827 422.321,42.074 C422.314,41.813 423.209,41.905 423.252,42.002 C424.912,45.418 425.914,46.517 429.763,46.34 C432.02,46.235 434.336,44.557 434.276,42.068 C434.111,35.586 422.701,35.873 422.522,28.768 C422.435,25.187 425.556,21.426 430.325,21.305 C432.609,21.248 434.079,21.886 435.445,22.63 C435.762,22.828 436.232,24.943 436.3,27.589 C436.301,27.745 435.266,27.772 435.26,27.615 C434.723,24.776 432.807,22.852 430.006,22.922 C427.566,22.982 425.783,24.221 425.843,26.605 C425.998,32.831 437.196,32.395 437.384,39.863 C437.49,44.115 434.368,47.882 429.442,48.008 C426.588,48.082 424.471,47.636 422.404,45.972" id="Fill-11" fill="#FFFFFE"></path>
            <path d="M380.704,15.008 C380.441,16.046 380.338,18.434 380.338,22.272 L380.338,30.883 C381.013,30.938 381.428,30.883 382.259,30.883 C390.092,30.883 392.789,28.031 392.789,23.775 C392.789,16.721 388.175,14.852 382.986,14.852 C382.209,14.852 381.584,14.906 380.704,15.008 Z M385.526,32.075 C384.645,32.287 383.451,32.336 382.31,32.336 C381.325,32.336 381.013,32.287 380.338,32.232 L380.338,38.357 C380.338,45.774 380.287,46.139 385.112,46.555 C385.373,46.555 385.475,47.643 385.059,47.539 C383.401,47.33 380.807,47.227 378.629,47.227 C375.564,47.227 373.18,47.227 371.001,47.539 C370.483,47.591 370.691,46.604 370.949,46.555 C375.517,46.034 375.824,46.139 375.824,38.357 L375.824,22.737 C375.824,16.877 375.671,15.061 372.713,15.061 C372.193,15.061 371.467,15.113 370.74,15.27 C370.586,15.32 370.171,14.49 370.691,14.336 C372.816,13.659 378.004,13.453 383.659,13.453 C391.237,13.453 397.46,15.734 397.46,21.545 C397.46,24.451 395.129,28.863 389.729,31.04 C394.763,38.096 395.041,53.321 407.663,54.151 C409.526,54.271 409.777,54.141 411.667,53.631 C411.986,53.546 412.421,54.358 412.03,54.512 C409.237,55.612 407.447,55.821 404.757,55.604 C391.033,54.488 389.834,38.614 385.526,32.075 Z" id="Fill-12" fill="#FFFFFE"></path>
            <path d="M418.041,47.436 C416.588,47.436 414.15,47.227 411.244,47.227 C407.303,47.227 403.218,47.227 400.314,47.436 C400.001,47.436 400.159,46.448 400.314,46.448 C404.257,45.981 403.982,45.463 403.982,40.533 L403.982,28.809 C403.982,23.881 403.619,23.259 399.675,22.844 C399.522,22.844 399.362,21.754 399.675,21.803 C402.582,22.065 407.147,22.117 411.092,22.117 C413.893,22.117 416.588,22.01 418.975,21.803 C418.717,22.637 418.717,23.725 418.717,24.504 C418.717,24.918 418.664,26.06 418.717,26.318 C418.717,26.423 417.73,26.473 417.73,26.371 C417.42,24.658 416.797,23.829 411.767,23.829 L408.392,23.829 C408.233,24.711 408.185,26.161 408.185,28.6 L408.185,33.375 L410.779,33.375 C415.137,33.375 415.45,33.271 415.862,31.609 C415.862,31.506 416.847,31.456 416.797,31.715 C416.642,32.287 416.588,33.893 416.588,34.774 C416.588,35.244 416.588,36.643 416.588,37.006 C416.692,37.059 415.604,37.111 415.604,37.059 C415.24,35.035 414.928,34.881 410.779,34.881 L408.185,34.881 L408.185,40.016 C408.185,44.997 408.442,45.463 410.207,45.463 L412.232,45.463 C418.196,45.463 418.354,44.633 418.925,42.092 C418.925,42.037 419.96,42.037 419.96,42.193 C419.806,43.182 419.392,45.724 419.131,46.5 C418.975,47.281 418.717,47.436 418.041,47.436" id="Fill-13" fill="#FFFFFE"></path>
            <path d="M456.771,47.436 C455.32,47.436 452.884,47.227 449.976,47.227 C446.033,47.227 441.313,47.227 438.408,47.436 C438.096,47.436 438.251,46.448 438.408,46.448 C442.351,45.981 442.713,45.463 442.713,40.533 L442.713,28.809 C442.713,23.881 442.351,23.259 438.408,22.844 C438.251,22.844 438.096,21.754 438.408,21.803 C441.313,22.065 445.876,22.117 449.821,22.117 C452.622,22.117 455.32,22.01 457.707,21.803 C457.445,22.637 457.445,23.725 457.445,24.504 C457.445,24.918 457.396,26.06 457.445,26.318 C457.445,26.423 456.46,26.473 456.46,26.371 C456.15,24.658 455.526,23.829 450.496,23.829 L447.123,23.829 C446.967,24.711 446.918,26.161 446.918,28.6 L446.918,33.375 L449.509,33.375 C453.868,33.375 454.178,33.271 454.596,31.609 C454.596,31.506 455.582,31.456 455.526,31.715 C455.371,32.287 455.32,33.893 455.32,34.774 C455.32,35.244 455.32,36.643 455.32,37.006 C455.424,37.059 454.335,37.111 454.335,37.059 C453.969,35.035 453.663,34.881 449.509,34.881 L446.918,34.881 L446.918,40.016 C446.918,44.997 447.175,45.463 448.938,45.463 L450.963,45.463 C456.93,45.463 457.084,44.633 457.656,42.092 C457.656,42.037 458.695,42.037 458.695,42.193 C458.537,43.182 458.121,45.724 457.862,46.5 C457.707,47.281 457.445,47.436 456.771,47.436" id="Fill-14" fill="#FFFFFE"></path>
            <path d="M467.809,23.412 C467.602,24.141 467.5,25.647 467.5,28.446 L467.5,34.672 C467.965,34.672 468.275,34.725 468.951,34.725 C474.085,34.725 476.111,32.752 476.111,29.224 C476.111,24.867 473.619,23.31 469.105,23.31 C468.537,23.31 468.38,23.359 467.809,23.412 Z M469.001,36.229 C468.225,36.229 467.965,36.229 467.5,36.178 L467.5,40.533 C467.5,45.205 467.858,46.139 471.389,46.448 C471.545,46.448 471.65,47.539 471.336,47.436 C470.143,47.281 467.5,47.227 465.836,47.227 C463.553,47.227 461.013,47.227 459.351,47.436 C459.042,47.539 459.197,46.448 459.351,46.448 C462.723,46.086 463.347,45.463 463.347,40.533 L463.347,28.809 C463.347,24.297 462.523,22.753 460.707,22.753 C460.291,22.753 460.303,22.762 459.733,22.865 C459.526,22.969 459.275,22.017 459.579,21.932 C461.362,21.439 465.645,21.832 469.625,21.803 C476.626,21.76 480.365,24.036 480.365,28.187 C480.365,30.779 478.496,33.322 475.434,34.62 C477.512,39.912 483.075,47.072 487.592,47.072 C487.746,47.072 487.902,48.059 487.592,48.059 C479.082,48.059 473.619,42.037 471.905,35.916 C470.975,36.072 469.779,36.229 469.001,36.229 Z" id="Fill-15" fill="#FFFFFE"></path>
            <path d="M493.928,47.695 C493.875,47.849 493.252,47.953 493.096,47.643 L484.901,28.863 C483.034,24.605 481.838,23.104 478.728,22.844 C478.57,22.844 478.414,21.754 478.728,21.856 C479.971,22.01 482.307,22.117 483.914,22.117 C486.196,22.117 489.053,22.117 490.608,21.856 C490.92,21.754 490.92,22.791 490.658,22.844 C488.946,23.05 487.963,23.152 487.963,24.189 C487.963,24.918 488.168,26.268 489.259,28.758 L494.914,41.571 L500.516,28.758 C501.762,25.851 501.92,25.124 501.92,24.189 C501.92,23.31 501.088,22.998 499.377,22.844 C499.221,22.844 499.063,21.754 499.377,21.856 C500.57,22.01 502.178,22.117 503.834,22.117 C506.171,22.117 506.301,22.065 508.088,22.087 C508.417,22.09 508.351,22.844 508.193,22.844 C505.758,23.104 504.354,24.297 502.332,28.863 L493.928,47.695" id="Fill-16" fill="#FFFFFE"></path>
            <path d="M523.185,47.436 C521.732,47.436 519.295,47.227 516.388,47.227 C512.445,47.227 507.726,47.227 504.821,47.436 C504.508,47.436 504.663,46.448 504.821,46.448 C508.763,45.981 509.125,45.463 509.125,40.533 L509.125,28.809 C509.125,23.881 508.763,23.259 504.821,22.844 C504.663,22.844 504.534,22.09 504.851,22.087 C507.688,22.043 512.288,22.117 516.233,22.117 C519.035,22.117 521.732,22.01 524.119,21.803 C523.859,22.637 523.859,23.725 523.859,24.504 C523.859,24.918 523.809,26.06 523.859,26.318 C523.859,26.423 522.875,26.473 522.875,26.371 C522.563,24.658 521.941,23.829 516.908,23.829 L513.535,23.829 C513.381,24.711 513.328,26.161 513.328,28.6 L513.328,33.375 L515.924,33.375 C520.28,33.375 520.592,33.271 521.006,31.609 C521.006,31.506 521.99,31.456 521.941,31.715 C521.787,32.287 521.732,33.893 521.732,34.774 C521.732,35.244 521.732,36.643 521.732,37.006 C521.838,37.059 520.748,37.111 520.748,37.059 C520.384,35.035 520.071,34.881 515.924,34.881 L513.328,34.881 L513.328,40.016 C513.328,44.997 513.586,45.463 515.351,45.463 L517.375,45.463 C523.34,45.463 523.498,44.633 524.067,42.092 C524.067,42.037 525.105,42.037 525.105,42.193 C524.951,43.182 524.534,45.724 524.273,46.5 C524.119,47.281 523.859,47.436 523.185,47.436" id="Fill-17" fill="#FFFFFE"></path>
            <path d="M99.35,68.818 C99.35,72.853 96.303,76.258 91.002,76.258 C86.412,76.258 82.494,73.365 82.494,68.617 L82.494,61.655 C82.494,57.896 82.062,57.383 79.49,57.068 C79.37,57.068 79.291,56.274 79.526,56.354 C80.753,56.553 82.651,56.514 84.434,56.514 C85.698,56.514 87.679,56.472 88.627,56.354 C88.867,56.274 88.867,57.068 88.669,57.068 C85.977,57.303 85.741,58.096 85.741,61.655 L85.741,67.946 C85.741,72.572 88.746,74.631 91.793,74.631 C95.788,74.631 97.887,72.496 97.887,68.422 L97.887,61.38 C97.887,57.977 97.453,57.383 94.88,57.068 C94.685,57.027 94.685,56.274 94.918,56.354 C96.145,56.553 97.056,56.514 98.795,56.514 C100.025,56.514 101.329,56.472 102.238,56.354 C102.556,56.316 102.398,57.068 102.317,57.068 C99.588,57.303 99.35,58.174 99.35,61.38 L99.35,68.818" id="Fill-18" fill="#FFFFFE"></path>
            <path d="M135.5,70.559 C135.5,72.021 135.538,74.714 135.696,75.976 C135.696,76.097 135.221,76.258 134.985,76.018 L120.224,61.024 L120.224,70.559 C120.224,73.722 120.503,74.831 123.232,75.067 C123.312,75.067 123.391,75.899 123.153,75.818 C122.243,75.701 121.176,75.663 119.95,75.663 C118.209,75.663 116.944,75.663 115.675,75.818 C115.479,75.861 115.559,75.067 115.675,75.067 C118.288,74.793 118.684,73.921 118.684,70.559 L118.684,60.389 C118.684,59.045 116.191,57.228 114.847,57.068 C114.727,57.068 114.647,56.236 114.885,56.316 C116.113,56.514 118.408,56.553 120.108,56.553 L133.917,70.838 L133.917,61.617 C133.917,58.215 133.521,57.344 130.947,57.068 C130.752,57.027 130.752,56.236 130.988,56.316 C132.176,56.514 133.164,56.514 134.905,56.514 C136.173,56.514 137.515,56.432 138.39,56.316 C138.782,56.274 138.585,57.068 138.507,57.068 C135.738,57.266 135.5,58.449 135.5,61.617 L135.5,70.559" id="Fill-19" fill="#FFFFFE"></path>
            <path d="M158.282,75.663 C156.5,75.663 154.604,75.663 153.335,75.818 C153.017,75.899 153.216,75.067 153.293,75.067 C155.906,74.793 156.301,74.277 156.301,70.559 L156.301,61.617 C156.301,57.857 155.906,57.344 153.293,57.068 C153.216,57.068 153.06,56.274 153.375,56.316 C154.604,56.514 156.5,56.514 158.282,56.514 C159.468,56.514 161.526,56.432 162.437,56.316 C162.754,56.274 162.593,57.068 162.513,57.068 C159.783,57.266 159.507,58.096 159.507,61.617 L159.507,70.559 C159.507,74.077 159.783,74.831 162.513,75.067 C162.593,75.067 162.754,75.861 162.437,75.818 C161.526,75.701 159.468,75.663 158.282,75.663" id="Fill-20" fill="#FFFFFE"></path>
            <path d="M187.495,76.018 C187.453,76.139 186.976,76.217 186.86,75.976 L180.607,61.655 C179.184,58.412 178.273,57.266 175.901,57.068 C175.783,57.068 175.661,56.236 175.901,56.316 C176.849,56.432 178.63,56.514 179.857,56.514 C181.6,56.514 183.774,56.514 184.962,56.316 C185.198,56.236 185.198,57.027 185,57.068 C183.697,57.228 182.945,57.303 182.945,58.096 C182.945,58.648 183.104,59.675 183.933,61.576 L188.245,71.35 L192.519,61.576 C193.468,59.361 193.585,58.807 193.585,58.096 C193.585,57.422 192.952,57.187 191.646,57.068 C191.529,57.068 191.41,56.236 191.646,56.316 C192.559,56.432 193.784,56.514 195.05,56.514 C196.831,56.514 197.107,56.514 198.334,56.316 C198.572,56.236 198.495,57.068 198.372,57.068 C196.516,57.266 195.448,58.174 193.901,61.655 L187.495,76.018" id="Fill-21" fill="#FFFFFE"></path>
            <path d="M224.581,75.818 C223.469,75.818 221.612,75.663 219.398,75.663 C216.392,75.663 212.789,75.663 210.574,75.818 C210.335,75.818 210.456,75.067 210.574,75.067 C213.58,74.714 213.86,74.316 213.86,70.559 L213.86,61.617 C213.86,57.857 213.58,57.383 210.574,57.068 C210.456,57.068 210.335,56.236 210.574,56.274 C212.789,56.472 216.271,56.514 219.278,56.514 C221.415,56.514 223.469,56.432 225.292,56.274 C225.097,56.91 225.097,57.736 225.097,58.33 C225.097,58.648 225.056,59.521 225.097,59.717 C225.097,59.796 224.344,59.834 224.344,59.757 C224.106,58.449 223.631,57.816 219.793,57.816 L217.221,57.816 C217.101,58.491 217.063,59.599 217.063,61.457 L217.063,65.098 L219.04,65.098 C222.365,65.098 222.601,65.021 222.918,63.751 C222.918,63.674 223.668,63.635 223.631,63.831 C223.512,64.267 223.469,65.492 223.469,66.165 C223.469,66.522 223.469,67.592 223.469,67.867 C223.551,67.908 222.724,67.946 222.724,67.908 C222.444,66.363 222.204,66.245 219.04,66.245 L217.063,66.245 L217.063,70.163 C217.063,73.96 217.257,74.316 218.604,74.316 L220.148,74.316 C224.699,74.316 224.817,73.685 225.255,71.745 C225.255,71.706 226.042,71.706 226.042,71.825 C225.923,72.572 225.612,74.515 225.411,75.109 C225.292,75.701 225.097,75.818 224.581,75.818" id="Fill-22" fill="#FFFFFE"></path>
            <path d="M248.203,57.5 C248.044,58.057 247.967,59.201 247.967,61.341 L247.967,66.089 C248.322,66.089 248.558,66.127 249.073,66.127 C252.991,66.127 254.536,64.624 254.536,61.934 C254.536,58.607 252.638,57.422 249.191,57.422 C248.756,57.422 248.637,57.463 248.203,57.5 Z M249.115,67.272 C248.521,67.272 248.322,67.272 247.967,67.235 L247.967,70.559 C247.967,74.119 248.243,74.831 250.931,75.067 C251.051,75.067 251.13,75.899 250.894,75.818 C249.982,75.701 247.967,75.663 246.7,75.663 C244.96,75.663 243.021,75.663 241.755,75.818 C241.515,75.899 241.635,75.067 241.755,75.067 C244.325,74.793 244.8,74.316 244.8,70.559 L244.8,61.617 C244.8,58.174 244.168,57.422 242.781,57.422 C242.465,57.422 242.108,57.463 241.677,57.543 C241.515,57.619 241.317,56.869 241.558,56.826 C242.821,56.432 246.344,56.274 249.585,56.274 C254.93,56.274 257.777,57.977 257.777,61.143 C257.777,63.119 256.353,65.06 254.019,66.047 C255.603,70.086 259.362,75.542 262.801,75.542 C262.921,75.542 263.039,76.295 262.801,76.295 C256.314,76.295 252.638,71.706 251.329,67.037 C250.616,67.154 249.706,67.272 249.115,67.272 Z" id="Fill-23" fill="#FFFFFE"></path>
            <path d="M276.711,74.436 C276.543,74.329 276.523,72.11 276.506,70.01 C276.49,69.812 277.209,69.846 277.216,69.922 C277.643,72.909 279.376,75.177 282.453,74.979 C284.588,74.844 285.966,73.483 285.846,71.588 C285.527,66.655 276.842,67.213 276.49,61.804 C276.318,59.078 278.584,56.116 282.217,55.883 C283.95,55.774 285.092,56.219 286.156,56.74 C286.404,56.881 286.825,58.482 286.953,60.495 C286.963,60.613 286.171,60.664 286.162,60.545 C285.671,58.399 284.154,56.99 282.021,57.127 C280.162,57.245 278.842,58.242 278.957,60.059 C279.263,64.798 287.783,64.129 288.15,69.814 C288.358,73.053 286.013,76.018 282.26,76.262 C280.086,76.4 278.334,75.643 276.711,74.436" id="Fill-24" fill="#FFFFFE"></path>
            <path d="M309.275,75.663 C307.494,75.663 305.593,75.663 304.328,75.818 C304.013,75.899 304.211,75.067 304.288,75.067 C306.9,74.793 307.297,74.277 307.297,70.559 L307.297,61.617 C307.297,57.857 306.9,57.344 304.288,57.068 C304.211,57.068 304.051,56.274 304.371,56.316 C305.593,56.514 307.494,56.514 309.275,56.514 C310.463,56.514 312.522,56.432 313.43,56.316 C313.75,56.274 313.586,57.068 313.509,57.068 C310.779,57.266 310.504,58.096 310.504,61.617 L310.504,70.559 C310.504,74.077 310.779,74.831 313.509,75.067 C313.586,75.067 313.75,75.861 313.43,75.818 C312.522,75.701 310.463,75.663 309.275,75.663" id="Fill-25" fill="#FFFFFE"></path>
            <path d="M347.101,60.232 C347.101,60.35 346.384,60.313 346.384,60.232 C346.108,58.928 345.078,58.016 341.917,58.016 L340.009,58.016 L340.009,70.559 C340.009,74.077 340.25,74.831 343.017,75.067 C343.134,75.067 343.215,75.861 342.898,75.818 C341.984,75.701 339.969,75.663 338.703,75.663 C337.001,75.663 335.063,75.663 333.836,75.818 C333.521,75.899 333.678,75.067 333.796,75.067 C336.41,74.793 336.803,74.277 336.803,70.559 L336.803,58.016 L334.74,58.016 C331.695,58.016 330.506,58.887 330.115,60.271 C329.951,60.313 329.357,60.313 329.398,60.191 C329.52,59.559 329.546,58.01 329.546,57.178 C329.546,57.055 329.475,56.853 329.436,56.672 C329.413,56.549 330.07,56.538 330.148,56.632 C330.446,56.975 330.467,56.632 334.74,56.632 L341.917,56.632 C346.15,56.632 346.347,56.992 346.586,56.632 C346.656,56.527 347.376,56.553 347.297,56.712 C347.139,57.344 347.057,57.383 347.057,58.372 C347.057,58.848 347.057,59.834 347.101,60.232" id="Fill-26" fill="#FFFFFE"></path>
            <path d="M381.751,57.228 C376.924,57.228 373.401,63.158 373.401,69.808 L373.401,70.559 C373.401,74.119 373.642,74.831 376.369,75.067 C376.492,75.067 376.568,75.899 376.334,75.818 C375.384,75.701 373.367,75.663 372.138,75.663 C370.398,75.663 368.455,75.663 367.191,75.818 C366.875,75.899 367.074,75.067 367.152,75.067 C369.763,74.793 370.199,74.277 370.199,70.559 L370.199,69.808 C370.199,62.566 366.242,57.266 361.612,57.266 C361.217,57.266 360.861,57.303 360.506,57.383 C360.425,57.383 360.229,56.707 360.465,56.67 C361.455,56.316 362.523,56.076 363.472,56.076 C367.865,56.076 371.504,59.479 372.693,63.908 C374.471,58.967 377.638,56.274 381.2,56.274 C381.834,56.274 383.203,56.432 383.834,56.67 C384.072,56.707 383.834,57.463 383.678,57.383 C383.203,57.266 382.268,57.228 381.751,57.228" id="Fill-27" fill="#FFFFFE"></path>
            <path d="M433.647,84.6 L433.507,84.439 C433.401,84.261 433.465,83.984 433.538,83.856 L433.604,83.738 L433.932,83.686 C435.897,83.475 435.897,83.475 435.897,80.326 L435.897,73.475 C435.897,70.303 435.897,70.303 433.93,70.071 L433.748,70.049 C433.746,70.049 433.746,70.049 433.744,70.049 C433.521,70.049 433.441,69.716 433.441,69.555 C433.441,69.467 433.461,69.388 433.504,69.327 C433.563,69.231 433.664,69.181 433.779,69.181 C435.326,69.283 437.477,69.339 440.03,69.339 C441.852,69.339 443.344,69.287 444.603,69.182 L444.945,69.15 L444.841,69.48 C444.718,69.873 444.689,70.249 444.689,70.734 C444.689,70.955 444.689,71.399 444.713,71.574 L444.726,71.672 L444.655,71.781 C444.59,71.862 444.483,71.902 444.334,71.902 C444.215,71.902 443.928,71.88 443.855,71.678 C443.707,70.873 443.517,70.53 440.42,70.53 L438.428,70.53 C438.354,71.182 438.342,72.269 438.342,73.36 L438.342,76.054 L440.466,76.054 C442.588,76.054 442.609,75.938 442.68,75.598 L442.71,75.454 C442.738,75.363 442.813,75.248 443.031,75.248 C443.031,75.248 443.404,75.256 443.531,75.396 L443.617,75.49 L443.586,75.612 C443.508,75.912 443.459,76.432 443.459,76.971 C443.459,77.212 443.459,77.653 443.478,77.832 L443.49,77.916 L443.439,78.023 C443.375,78.123 443.255,78.171 443.072,78.171 C442.9,78.171 442.684,78.132 442.619,77.954 C442.508,77.362 442.461,77.129 440.466,77.129 L438.342,77.129 L438.342,80.236 C438.342,83.247 438.74,83.247 439.529,83.247 L440.74,83.247 C444.188,83.247 444.251,82.97 444.556,81.624 C444.551,81.577 444.601,81.415 444.922,81.415 C445.134,81.415 445.28,81.464 445.359,81.562 L445.43,81.644 L445.417,81.787 C445.33,82.339 445.125,83.425 444.977,83.93 C444.829,84.477 444.572,84.576 444.119,84.576 C443.77,84.576 443.309,84.556 442.77,84.533 C442.017,84.499 441.109,84.461 440.121,84.461 C438.112,84.461 435.579,84.477 433.814,84.6 L433.647,84.6" id="Fill-28" fill="#FFFFFE"></path>
            <path d="M451.896,84.918 C450.263,84.918 448.896,84.416 447.594,83.336 C447.438,83.208 447.442,83 447.545,81.598 C447.579,81.164 447.621,80.662 447.646,80.132 C447.646,80.094 447.667,79.833 448.085,79.833 C448.487,79.833 448.518,80.054 448.518,80.121 C448.681,82.455 449.955,83.75 452.103,83.75 C453.397,83.75 454.91,83.11 454.91,81.31 C454.91,79.59 453.357,78.686 451.709,77.729 C449.904,76.679 448.039,75.595 448.039,73.337 C448.039,71.187 449.938,68.883 452.767,68.883 C454.271,68.883 455.178,69.267 455.867,69.644 C456.174,69.795 456.33,70.699 456.33,72.332 C456.33,72.405 456.297,72.645 455.871,72.645 L455.483,72.58 L455.413,72.355 C455.167,70.846 454.185,70.028 452.584,70.028 C451.367,70.028 450.074,70.764 450.074,72.126 C450.074,73.731 451.542,74.58 453.097,75.483 C454.84,76.491 456.813,77.64 456.813,80.051 C456.813,82.781 454.652,84.918 451.896,84.918" id="Fill-29" fill="#FFFFFE"></path>
            <path d="M461.217,84.603 C461.076,84.603 460.924,84.5 460.902,84.276 C460.882,84.074 460.96,83.757 461.196,83.709 C463.115,83.513 463.115,83.513 463.115,80.326 L463.115,70.691 L462.671,70.691 C460.075,70.691 459.983,71.057 459.762,71.936 L459.689,72.206 L459.559,72.236 C459.483,72.256 459.381,72.257 459.34,72.257 C459.121,72.257 459,72.217 458.931,72.12 L458.862,72.024 L458.896,71.894 C458.959,71.563 458.996,70.921 458.996,70.072 C458.996,69.741 458.966,69.595 458.913,69.351 L458.871,69.143 L458.921,69.034 C459.007,68.897 459.196,68.869 459.343,68.869 C459.512,68.869 459.627,68.906 459.696,68.986 C460.123,69.456 460.293,69.467 461.783,69.444 L465.91,69.432 C466.375,69.436 466.764,69.444 467.097,69.452 C468.507,69.486 468.777,69.457 469.053,69.021 C469.082,68.974 469.146,68.875 469.453,68.875 C469.634,68.875 469.755,68.923 469.822,69.021 L469.892,69.119 L469.851,69.267 C469.744,69.765 469.684,70.041 469.684,70.78 C469.684,71.114 469.684,71.675 469.725,71.931 L469.74,72.024 L469.68,72.116 C469.634,72.185 469.546,72.253 469.27,72.253 C469.164,72.253 468.858,72.253 468.858,71.99 L468.836,71.916 C468.67,71.074 468.592,70.691 465.91,70.691 L465.586,70.691 L465.586,80.326 C465.586,83.562 465.586,83.562 467.493,83.707 C467.497,83.707 467.497,83.707 467.497,83.707 C467.699,83.707 467.814,83.941 467.814,84.171 C467.814,84.424 467.663,84.6 467.45,84.6 C466.764,84.513 465.671,84.461 464.621,84.461 C463.271,84.461 462.24,84.484 461.267,84.596 L461.217,84.603" id="Fill-30" fill="#FFFFFE"></path>
            <path d="M469.137,83.126 C469.137,82.443 469.664,81.793 470.468,81.793 C471.211,81.793 471.771,82.413 471.771,83.063 C471.771,83.748 471.181,84.398 470.405,84.398 C469.664,84.398 469.137,83.777 469.137,83.126" id="Fill-31" fill="#FFFFFE"></path>
            <g id="Group-39">
                <mask id="mask-2" fill="white">
                    <use xlink:href="#path-1"></use>
                </mask>
                <g id="Clip-33"></g>
                <path d="M487.83,84.732 L487.799,84.726 C487.125,84.635 486.088,84.635 485.175,84.635 C484.225,84.635 483.15,84.635 482.459,84.73 C482.326,84.743 482.204,84.677 482.152,84.526 C482.134,84.471 482.126,84.406 482.126,84.334 C482.126,84.021 482.24,83.836 482.43,83.836 C483.967,83.65 483.996,83.649 483.996,82.003 L483.996,77.9 C483.996,76.669 483.797,76.575 483.52,76.575 C483.35,76.575 483.111,76.627 482.793,76.734 C482.539,76.746 482.404,76.581 482.353,76.438 C482.289,76.252 482.329,76.072 482.457,75.971 L482.725,75.819 C483.684,75.281 485.001,74.547 485.721,73.872 L485.788,73.811 L485.901,73.8 C486.046,73.8 486.267,73.911 486.367,74.031 L486.435,74.117 L486.442,74.3 C486.329,74.749 486.303,76.787 486.303,77.802 L486.303,82.003 C486.303,83.65 486.303,83.65 487.871,83.838 C487.871,83.838 487.872,83.838 487.875,83.838 C488.034,83.838 488.146,84.023 488.146,84.332 C488.146,84.713 487.901,84.732 487.853,84.732 L487.83,84.732" id="Fill-32" fill="#FFFFFE" mask="url(#mask-2)"></path>
                <path d="M494.908,69.172 C493.529,69.172 492.638,70.071 492.638,71.467 C492.638,73.02 493.906,73.941 495.585,74.961 C496.755,74.187 497.373,73.124 497.373,71.879 C497.373,70.311 496.338,69.172 494.908,69.172 Z M494.292,77.167 C492.625,78.021 491.908,79.1 491.908,80.765 C491.908,82.748 493.369,83.788 494.813,83.788 C496.575,83.788 497.763,82.718 497.763,81.128 C497.763,79.245 496.117,78.259 494.375,77.216 L494.292,77.167 Z M494.52,85 C491.75,85 489.58,83.14 489.58,80.765 C489.58,79.005 490.838,77.434 493.043,76.403 C491.721,75.522 490.43,74.395 490.43,72.534 C490.43,69.938 492.543,67.982 495.346,67.982 C497.667,67.982 499.556,69.676 499.556,71.759 C499.556,73.369 498.718,74.558 496.768,75.679 C498.338,76.682 499.895,77.954 499.895,80.082 C499.895,82.886 497.584,85 494.52,85 Z" id="Fill-34" fill="#FFFFFE" mask="url(#mask-2)"></path>
                <path d="M510.615,84.732 C510.291,84.732 509.813,84.716 509.259,84.695 C508.48,84.668 507.547,84.635 506.656,84.635 C504.604,84.635 503.122,84.635 501.6,84.732 C501.321,84.732 501.196,84.378 501.155,84.228 C501.064,83.899 501.17,83.759 501.273,83.698 C505.705,81.378 507.594,79.384 507.594,77.024 C507.594,75.409 506.701,74.366 505.324,74.366 C504.313,74.366 503.538,74.74 502.646,75.655 L502.579,75.725 L502.434,75.744 C502.227,75.744 502.053,75.544 501.988,75.409 C501.92,75.262 501.928,75.119 502.013,75.014 C503.232,73.347 504.618,72.499 506.125,72.499 C508.365,72.499 509.994,74.076 509.994,76.246 C509.994,78.447 507.816,80.834 505.463,82.402 L508.091,82.402 C510.381,82.402 510.55,82.223 510.676,80.959 C510.676,80.798 510.836,80.706 511.141,80.706 C511.494,80.706 511.547,80.878 511.547,80.982 C511.626,81.582 511.422,83.777 511.321,84.149 C511.256,84.401 511.105,84.732 510.615,84.732" id="Fill-35" fill="#FFFFFE" mask="url(#mask-2)"></path>
                <path d="M519.063,85 C515.3,85 513.586,82.035 513.586,79.283 C513.586,75.267 516.987,70.219 524.582,67.991 L524.674,67.979 C524.905,67.979 525.045,68.203 525.078,68.406 C525.111,68.617 525.029,68.789 524.865,68.844 C517.053,71.755 516.209,77.098 516.209,79.259 C516.209,81.954 517.571,83.909 519.449,83.909 C520.932,83.909 521.893,82.625 521.893,80.643 C521.893,78.702 520.93,77.496 519.379,77.496 C518.986,77.496 518.439,77.705 518.213,77.85 L518.074,77.891 C517.844,77.891 517.578,77.543 517.545,77.409 L517.506,77.232 L517.675,77.136 C518.338,76.43 519.476,75.922 520.445,75.922 C523.038,75.922 524.438,78.066 524.438,80.082 C524.438,82.746 521.976,85 519.063,85" id="Fill-36" fill="#FFFFFE" mask="url(#mask-2)"></path>
                <polygon id="Fill-37" fill="#FFFFFE" mask="url(#mask-2)" points="79.747 84.667 425.847 84.667 425.847 83.063 79.747 83.063"></polygon>
                <path d="M3.804,81.273 L3.347,53.343 C19.642,59.347 27.973,71.76 32.145,81.52 L3.804,81.273 Z M66.037,33.173 C65.418,33.151 65.415,33.928 65.415,33.928 L64.129,81.797 L34.516,81.539 C33.563,78.504 31.645,74.129 30.707,72.045 L56.299,78.58 L56.299,78.576 C56.343,78.582 56.385,78.59 56.432,78.59 C56.76,78.59 57.027,78.316 57.027,77.977 C57.027,77.711 56.866,77.492 56.64,77.406 L56.643,77.395 C56.418,77.313 38.578,70.873 31.426,68.289 L58.596,67.01 L58.596,66.998 C58.909,66.981 59.155,66.715 59.155,66.387 C59.155,66.062 58.909,65.799 58.596,65.781 L58.596,65.77 L30.379,64.533 L58.341,54 L58.341,53.995 C58.551,53.901 58.705,53.685 58.705,53.429 C58.705,53.089 58.437,52.816 58.11,52.816 C58.063,52.816 58.016,52.825 57.973,52.834 L57.968,52.822 L28.487,61.149 L58.705,35.883 C58.846,35.773 58.934,35.603 58.934,35.407 C58.934,35.068 58.667,34.794 58.341,34.794 C58.176,34.794 58.08,34.866 57.924,34.972 L26.572,57.789 L55.606,14.691 C55.671,14.59 55.71,14.47 55.71,14.34 C55.71,14.001 55.448,13.728 55.114,13.728 C54.897,13.728 54.769,13.816 54.607,14.035 L23.367,55.346 L34.704,16.486 C34.722,16.427 34.734,16.365 34.734,16.303 C34.734,15.961 34.47,15.688 34.142,15.688 C33.873,15.688 33.652,15.869 33.576,16.115 L19.85,53.604 C19.85,53.604 19.479,19.238 19.479,19.234 C19.479,18.897 19.212,18.622 18.883,18.622 C18.556,18.622 18.287,18.897 18.287,19.234 C18.287,19.239 18.287,19.245 18.287,19.251 C18.209,20.422 16.535,44.871 15.975,53.014 L7.808,28.453 C7.691,28.055 7.464,27.734 7.005,27.841 C6.423,27.978 6.625,28.728 6.625,28.728 L12.242,53.819 C9.442,52.457 6.445,51.375 3.297,50.603 L2.521,3.347 L36.322,1.766 C36.322,1.766 37.126,1.803 37.126,1.161 C37.126,0.476 36.296,0.526 36.296,0.526 L0,0.525188608 L0.27,84.648 L66.622,84.375 L66.622,33.948 C66.622,33.948 66.641,33.196 66.037,33.173 Z" id="Fill-38" fill="#FFFFFE" mask="url(#mask-2)"></path>
            </g>
        </g>
    </g>
</svg>