<svg xmlns="http://www.w3.org/2000/svg" xmlns:xlink="http://www.w3.org/1999/xlink" viewBox="0 0 196.23 293.51"><defs><style>.cls-1,.cls-6,.cls-7{fill:none;}.cls-2{clip-path:url(#clip-path);}.cls-3{fill:#525a5d;}.cls-4{fill:#0f070c;}.cls-5{fill:#fff;}.cls-6,.cls-7{stroke:#fff;}.cls-6{stroke-miterlimit:10;stroke-width:0.5px;}.cls-7{stroke-width:2px;}</style><clipPath id="clip-path" transform="translate(-2.78 0)"><rect class="cls-1" width="234.62" height="293.51"/></clipPath></defs><title>Community</title><g id="Layer_2" data-name="Layer 2"><g id="Layer_1-2" data-name="Layer 1"><g class="cls-2"><path class="cls-3" d="M60.3,121.41A57.52,57.52,0,1,0,2.78,63.89,57.52,57.52,0,0,0,60.3,121.41" transform="translate(-2.78 0)"/><path class="cls-4" d="M46.42,25.48A33.1,33.1,0,0,0,28.35,61.61L78.5,27.92a32.23,32.23,0,0,0-32.08-2.44" transform="translate(-2.78 0)"/><path class="cls-5" d="M81.53,31.06a21.59,21.59,0,0,0-1.45,3.14c-1,2.57-2.19,5.47-4.66,6.63-5.91,2.75-12.4,1.53-14.62,1,1.87-3,5.6-5.65,8.53-7.4a.65.65,0,0,0,.22-.88.63.63,0,0,0-.88-.22,30.43,30.43,0,0,0-8.24,6.78,15.23,15.23,0,0,1,1.71-6.62c2.24-3.94,6.34-7.2,10-7.95,3-.62,9.83,1.07,12.41,1.77a27.74,27.74,0,0,0-3,3.77M35.8,32.78a27.31,27.31,0,0,1,9.37,3.77c-3.05-.3-8.19-.69-10.75-.31-.81.12-1.52.26-2.19.4a12,12,0,0,1-7.56-.4A19.16,19.16,0,0,1,19.17,33c1-1.23,3.9-4.57,7.65-6a15.14,15.14,0,0,1,15,2.17c2.18,1.67,3.62,4.63,4.38,6.57a28.46,28.46,0,0,0-10.17-4.21.64.64,0,0,0-.27,1.26m18.36-19A.64.64,0,0,0,53.9,13a.66.66,0,0,0-.88.26,24.25,24.25,0,0,0-2.61,10.53C49.14,21.6,47.3,18,47.58,15.35c.36-3.41,2.23-10.4,6.75-12.5,3-1.4,9.71-1.34,11.87-1.28-.1.93-.28,2.62-.4,3.88a22,22,0,0,1-4.71,11.76,39.44,39.44,0,0,1-9.43,7.6,23.41,23.41,0,0,1,2.5-11m32.19,13a.64.64,0,0,0-.44-.45c-.41-.12-10-2.91-14-2.08S63.47,28.53,61,32.83a17.85,17.85,0,0,0-1.87,9.25c-.81,1.59-1.67,3.47-2.41,5.19a8,8,0,0,0-.15-1.8c-.67-3.29-2.09-7.91-3.36-12l-.8-2.62a20.49,20.49,0,0,1-.73-4.59,40.78,40.78,0,0,0,10.35-8.22,22.93,22.93,0,0,0,5-12.48c.18-1.84.48-4.56.48-4.56A.66.66,0,0,0,67.4.53.62.62,0,0,0,67,.3c-.38,0-9.29-.43-13.16,1.38-5,2.35-7.1,9.88-7.49,13.53-.44,4.17,3.46,10,4.12,10.94a21.84,21.84,0,0,0,.78,5.09L52,33.87c1.25,4.05,2.67,8.63,3.32,11.86A8.47,8.47,0,0,1,55.42,48a14,14,0,0,0-1.62-4.26,25.48,25.48,0,0,0-5.7-6.61c-.27-.94-2-6.32-5.46-9a16.35,16.35,0,0,0-16.28-2.35c-5,1.95-8.45,6.75-8.59,7a.64.64,0,0,0,.09.85,20.59,20.59,0,0,0,6.4,3.86,15.56,15.56,0,0,0,3.57.85,13.84,13.84,0,0,0,4.65-.4c.65-.13,1.34-.27,2.13-.39,3.24-.48,11.28.4,12.63.55a24.6,24.6,0,0,1,5.46,6.35,15.9,15.9,0,0,1,1.87,7.2l1.71.1C57,49.84,58.63,46,60.14,43a26.15,26.15,0,0,0,4,.75A22.52,22.52,0,0,0,76,42c2.94-1.37,4.2-4.52,5.32-7.31a19.07,19.07,0,0,1,1.35-2.94,31.86,31.86,0,0,1,3.55-4.33.65.65,0,0,0,.17-.62" transform="translate(-2.78 0)"/><path class="cls-6" d="M81.53,31.06a21.59,21.59,0,0,0-1.45,3.14c-1,2.57-2.19,5.47-4.66,6.63-5.91,2.75-12.4,1.53-14.62,1,1.87-3,5.6-5.65,8.53-7.4a.65.65,0,0,0,.22-.88.63.63,0,0,0-.88-.22,30.43,30.43,0,0,0-8.24,6.78,15.23,15.23,0,0,1,1.71-6.62c2.24-3.94,6.34-7.2,10-7.95,3-.62,9.83,1.07,12.41,1.77A27.74,27.74,0,0,0,81.53,31.06ZM35.8,32.78a27.31,27.31,0,0,1,9.37,3.77c-3.05-.3-8.19-.69-10.75-.31-.81.12-1.52.26-2.19.4a12,12,0,0,1-7.56-.4A19.16,19.16,0,0,1,19.17,33c1-1.23,3.9-4.57,7.65-6a15.14,15.14,0,0,1,15,2.17c2.18,1.67,3.62,4.63,4.38,6.57a28.46,28.46,0,0,0-10.17-4.21.64.64,0,0,0-.27,1.26Zm18.36-19A.64.64,0,0,0,53.9,13a.66.66,0,0,0-.88.26,24.25,24.25,0,0,0-2.61,10.53C49.14,21.6,47.3,18,47.58,15.35c.36-3.41,2.23-10.4,6.75-12.5,3-1.4,9.71-1.34,11.87-1.28-.1.93-.28,2.62-.4,3.88a22,22,0,0,1-4.71,11.76,39.44,39.44,0,0,1-9.43,7.6A23.41,23.41,0,0,1,54.16,13.82Zm32.19,13a.64.64,0,0,0-.44-.45c-.41-.12-10-2.91-14-2.08S63.47,28.53,61,32.83a17.85,17.85,0,0,0-1.87,9.25c-.81,1.59-1.67,3.47-2.41,5.19a8,8,0,0,0-.15-1.8c-.67-3.29-2.09-7.91-3.36-12l-.8-2.62a20.49,20.49,0,0,1-.73-4.59,40.78,40.78,0,0,0,10.35-8.22,22.93,22.93,0,0,0,5-12.48c.18-1.84.48-4.56.48-4.56A.66.66,0,0,0,67.4.53.62.62,0,0,0,67,.3c-.38,0-9.29-.43-13.16,1.38-5,2.35-7.1,9.88-7.49,13.53-.44,4.17,3.46,10,4.12,10.94a21.84,21.84,0,0,0,.78,5.09L52,33.87c1.25,4.05,2.67,8.63,3.32,11.86A8.47,8.47,0,0,1,55.42,48a14,14,0,0,0-1.62-4.26,25.48,25.48,0,0,0-5.7-6.61c-.27-.94-2-6.32-5.46-9a16.35,16.35,0,0,0-16.28-2.35c-5,1.95-8.45,6.75-8.59,7a.64.64,0,0,0,.09.85,20.59,20.59,0,0,0,6.4,3.86,15.56,15.56,0,0,0,3.57.85,13.84,13.84,0,0,0,4.65-.4c.65-.13,1.34-.27,2.13-.39,3.24-.48,11.28.4,12.63.55a24.6,24.6,0,0,1,5.46,6.35,15.9,15.9,0,0,1,1.87,7.2l1.71.1C57,49.84,58.63,46,60.14,43a26.15,26.15,0,0,0,4,.75A22.52,22.52,0,0,0,76,42c2.94-1.37,4.2-4.52,5.32-7.31a19.07,19.07,0,0,1,1.35-2.94,31.86,31.86,0,0,1,3.55-4.33A.65.65,0,0,0,86.35,26.79Z" transform="translate(-2.78 0)"/><path class="cls-5" d="M55.21,50.63q.52,7.11.82,14.21a3,3,0,0,1-.07,1" transform="translate(-2.78 0)"/><path class="cls-6" d="M55.21,50.63q.52,7.11.82,14.21a3,3,0,0,1-.07,1" transform="translate(-2.78 0)"/><path class="cls-5" d="M54.59,50.65c.16,2.54.31,5.09.43,7.63.06,1.25.12,2.5.17,3.75a16.84,16.84,0,0,1,.05,3.82c-.17.81,1.19,1,1.35.14a15.23,15.23,0,0,0,0-3.57q-.08-2-.18-4.05-.2-4-.44-7.93c-.06-.83-1.4-.62-1.35.21" transform="translate(-2.78 0)"/><path class="cls-6" d="M54.59,50.65c.16,2.54.31,5.09.43,7.63.06,1.25.12,2.5.17,3.75a16.84,16.84,0,0,1,.05,3.82c-.17.81,1.19,1,1.35.14a15.23,15.23,0,0,0,0-3.57q-.08-2-.18-4.05-.2-4-.44-7.93C55.88,49.61,54.54,49.82,54.59,50.65Z" transform="translate(-2.78 0)"/><path class="cls-5" d="M55,49.66a14.44,14.44,0,0,0,.09,2q.48,5.16.95,10.33" transform="translate(-2.78 0)"/><path class="cls-6" d="M55,49.66a14.44,14.44,0,0,0,.09,2q.48,5.16.95,10.33" transform="translate(-2.78 0)"/><path class="cls-5" d="M54.39,49.5a53.61,53.61,0,0,0,.41,6.19c.18,2.15.35,4.3.53,6.45.07.84,1.41.63,1.35-.21l-.51-6.2a54.2,54.2,0,0,1-.43-6.09c0-.83-1.33-1-1.35-.14" transform="translate(-2.78 0)"/><path class="cls-6" d="M54.39,49.5a53.61,53.61,0,0,0,.41,6.19c.18,2.15.35,4.3.53,6.45.07.84,1.41.63,1.35-.21l-.51-6.2a54.2,54.2,0,0,1-.43-6.09C55.77,48.81,54.41,48.66,54.39,49.5Z" transform="translate(-2.78 0)"/><path class="cls-5" d="M56.21,49.09a82.68,82.68,0,0,0,0,10.08,9.48,9.48,0,0,1,0,1.41c0,.23-.08.46-.11.69a5.72,5.72,0,0,0,0,1.24c.12,1.84.78,3.71.36,5.5" transform="translate(-2.78 0)"/><path class="cls-6" d="M56.21,49.09a82.68,82.68,0,0,0,0,10.08,9.48,9.48,0,0,1,0,1.41c0,.23-.08.46-.11.69a5.72,5.72,0,0,0,0,1.24c.12,1.84.78,3.71.36,5.5" transform="translate(-2.78 0)"/><path class="cls-5" d="M55.58,48.92a92.86,92.86,0,0,0-.09,9.87c.07,1.5-.22,3-.07,4.45A15.77,15.77,0,0,1,55.68,68c-.17.82,1.19,1,1.35.14a13.66,13.66,0,0,0-.19-4.55c-.2-1.5.1-2.92,0-4.41a95.45,95.45,0,0,1,.07-10.15c.05-.83-1.3-1-1.36-.14" transform="translate(-2.78 0)"/><path class="cls-6" d="M55.58,48.92a92.86,92.86,0,0,0-.09,9.87c.07,1.5-.22,3-.07,4.45A15.77,15.77,0,0,1,55.68,68c-.17.82,1.19,1,1.35.14a13.66,13.66,0,0,0-.19-4.55c-.2-1.5.1-2.92,0-4.41a95.45,95.45,0,0,1,.07-10.15C57,48.23,55.64,48.09,55.58,48.92Z" transform="translate(-2.78 0)"/><path class="cls-5" d="M55.93,64.8l-.09,3.13a1.05,1.05,0,0,0,.07.5.47.47,0,0,0,.46.27c.33,0,.36-.46.29-.75a25.46,25.46,0,0,1-.92-3.66,11,11,0,0,1,0-1.72l.18-2.69" transform="translate(-2.78 0)"/><path class="cls-6" d="M55.93,64.8l-.09,3.13a1.05,1.05,0,0,0,.07.5.47.47,0,0,0,.46.27c.33,0,.36-.46.29-.75a25.46,25.46,0,0,1-.92-3.66,11,11,0,0,1,0-1.72l.18-2.69" transform="translate(-2.78 0)"/><path class="cls-5" d="M55.27,64.68c0,.7-.05,1.4-.07,2.1a4.06,4.06,0,0,0,.08,1.9,1.12,1.12,0,0,0,1.59.48,1.31,1.31,0,0,0,.41-1.42,24.88,24.88,0,0,1-.83-3.69,36.48,36.48,0,0,1,.24-4.18c.06-.84-1.32-1-1.38-.15a32.15,32.15,0,0,0-.21,4.7,11.65,11.65,0,0,0,.43,2.08c.1.35.2.71.29,1.07,0,.14.06.32.11.46s-.09.12.12,0l.36,0c.26,0,.05.26.13,0,0-.11,0-.24,0-.35l0-1c0-.62.05-1.23.07-1.84,0-.84-1.35-1-1.38-.15" transform="translate(-2.78 0)"/><path class="cls-6" d="M55.27,64.68c0,.7-.05,1.4-.07,2.1a4.06,4.06,0,0,0,.08,1.9,1.12,1.12,0,0,0,1.59.48,1.31,1.31,0,0,0,.41-1.42,24.88,24.88,0,0,1-.83-3.69,36.48,36.48,0,0,1,.24-4.18c.06-.84-1.32-1-1.38-.15a32.15,32.15,0,0,0-.21,4.7,11.65,11.65,0,0,0,.43,2.08c.1.35.2.71.29,1.07,0,.14.06.32.11.46s-.09.12.12,0l.36,0c.26,0,.05.26.13,0,0-.11,0-.24,0-.35l0-1c0-.62.05-1.23.07-1.84C56.68,64,55.3,63.84,55.27,64.68Z" transform="translate(-2.78 0)"/><path class="cls-5" d="M55.81,63.2a16.4,16.4,0,0,0-.17,4.64,1.1,1.1,0,0,0,.18.58.56.56,0,0,0,.61.19" transform="translate(-2.78 0)"/><path class="cls-6" d="M55.81,63.2a16.4,16.4,0,0,0-.17,4.64,1.1,1.1,0,0,0,.18.58.56.56,0,0,0,.61.19" transform="translate(-2.78 0)"/><path class="cls-5" d="M55.17,63.05a18,18,0,0,0-.25,3.59,5.62,5.62,0,0,0,.19,1.83,1.22,1.22,0,0,0,1.58.72.65.65,0,0,0,.35-.87.74.74,0,0,0-.93-.34.32.32,0,0,1,.3,0,.08.08,0,0,1,0,0s0-.15,0-.17a5.63,5.63,0,0,1,0-.59c0-.45,0-.89,0-1.34a17,17,0,0,1,.26-2.75.7.7,0,0,0-1.4-.15" transform="translate(-2.78 0)"/><path class="cls-6" d="M55.17,63.05a18,18,0,0,0-.25,3.59,5.62,5.62,0,0,0,.19,1.83,1.22,1.22,0,0,0,1.58.72.65.65,0,0,0,.35-.87.74.74,0,0,0-.93-.34.32.32,0,0,1,.3,0,.08.08,0,0,1,0,0s0-.15,0-.17a5.63,5.63,0,0,1,0-.59c0-.45,0-.89,0-1.34a17,17,0,0,1,.26-2.75.7.7,0,0,0-1.4-.15Z" transform="translate(-2.78 0)"/><path class="cls-5" d="M56,59.5a12.61,12.61,0,0,0,.53,6.82c-.12-1.76-.24-3.51-.35-5.27,0-.59-.08-1.18-.14-1.76" transform="translate(-2.78 0)"/><path class="cls-6" d="M56,59.5a12.61,12.61,0,0,0,.53,6.82c-.12-1.76-.24-3.51-.35-5.27,0-.59-.08-1.18-.14-1.76" transform="translate(-2.78 0)"/><path class="cls-5" d="M55.33,59.33a12.17,12.17,0,0,0,.47,6.21.73.73,0,0,0,.86.36.66.66,0,0,0,.49-.73c-.12-2-.19-4.05-.38-6.06a.72.72,0,0,0-.82-.55.67.67,0,0,0-.58.76c.19,2,.26,4,.37,6.05L57.09,65a10.91,10.91,0,0,1-.34-5.52.7.7,0,0,0-.64-.74.71.71,0,0,0-.78.59" transform="translate(-2.78 0)"/><path class="cls-6" d="M55.33,59.33a12.17,12.17,0,0,0,.47,6.21.73.73,0,0,0,.86.36.66.66,0,0,0,.49-.73c-.12-2-.19-4.05-.38-6.06a.72.72,0,0,0-.82-.55.67.67,0,0,0-.58.76c.19,2,.26,4,.37,6.05L57.09,65a10.91,10.91,0,0,1-.34-5.52.7.7,0,0,0-.64-.74A.71.71,0,0,0,55.33,59.33Z" transform="translate(-2.78 0)"/><path class="cls-7" d="M54,114.85v73.23S51.6,214,73.11,213.28s28.62-20.88,21.51-39.6,8.95-36.72,27.2-27.36,29.77,52.56,12.49,73.44-21.6,47.52-10.08,60.12,56.88,34.92,73.8-46.44" transform="translate(-2.78 0)"/><path class="cls-4" d="M92,64.58a33.16,33.16,0,0,0-4.06-11L28.36,62.41a33.36,33.36,0,0,0-1,8c0,.17,0,.35,0,.53,0,.83.05,1.65.12,2.45.15,2,.41,4.25.68,6.67.06.52.12,1,.17,1.59a126.49,126.49,0,0,1,1,13.42v27.29H67.54v-7.34a5.92,5.92,0,0,1,5.88-5.94H84.09a5.06,5.06,0,0,0,5-5.08V88L95,86.11,92.36,67.19c-.09-.87-.21-1.75-.36-2.61" transform="translate(-2.78 0)"/></g></g></g></svg>