<svg xmlns="http://www.w3.org/2000/svg" xmlns:xlink="http://www.w3.org/1999/xlink" viewBox="0 0 175.8 116.04"><defs><style>.cls-1,.cls-6,.cls-7{fill:none;}.cls-2{clip-path:url(#clip-path);}.cls-3{fill:#525a5d;}.cls-4{fill:#0f070c;}.cls-5{fill:#fff;}.cls-6,.cls-7{stroke:#fff;}.cls-6{stroke-miterlimit:10;stroke-width:0.5px;}.cls-7{stroke-width:1.3px;}</style><clipPath id="clip-path" transform="translate(0 0)"><rect class="cls-1" width="175.8" height="116.04"/></clipPath></defs><title>Innovation</title><g id="Layer_2" data-name="Layer 2"><g id="Layer_1-2" data-name="Layer 1"><g class="cls-2"><path class="cls-3" d="M57.52,115A57.52,57.52,0,1,0,0,57.52,57.52,57.52,0,0,0,57.52,115" transform="translate(0 0)"/><path class="cls-4" d="M43.64,19.1A33.12,33.12,0,0,0,25.57,55.24L75.72,21.55A32.25,32.25,0,0,0,43.64,19.1" transform="translate(0 0)"/><path class="cls-5" d="M77.92,34.13a7.9,7.9,0,0,1,1,1.56,6.4,6.4,0,0,1-1.66,1.81,5.45,5.45,0,0,0-.9-1.88A13.74,13.74,0,0,0,73,31.07a10.69,10.69,0,0,1,4.89,3.06M75,44.92a9.46,9.46,0,0,0,.89-1,11,11,0,0,1-.59,1.25l-.3-.24M80.51,52c1.54,2.24,2.92,5.34,1.21,7.87a7.06,7.06,0,0,1-3,2.33,13.84,13.84,0,0,1-4.05,1.11,13.23,13.23,0,0,1-4-.14,5.84,5.84,0,0,0,.86-2.11A6.86,6.86,0,0,0,71.59,60c1.89-2.23,2.25-5.21,2-8.08-.08-.91-.19-1.82-.34-2.73a15.9,15.9,0,0,0,2.28-2.71,30.84,30.84,0,0,1,5,5.55M68.86,63.78a5,5,0,0,1-3.29.78,5.8,5.8,0,0,1-1.63-.39c1.12-.36,2.27-.74,3.37-1.21a10.42,10.42,0,0,0,1.69.71l-.14.11M61.55,64c-2.46.66-5.18,1.19-7.68.43-2.69-.83-4.2-3.2-4.83-5.84-.1-.46-.19-.92-.26-1.39a6.05,6.05,0,0,0,1.53,1.41,4.18,4.18,0,0,0,4.91-.35l0,0a1.39,1.39,0,0,0,1.38,1.07,5.39,5.39,0,0,0,1.84-.48l.11,0a13,13,0,0,0,.83,2.09,9.21,9.21,0,0,0,2.42,3.06l-.27.07M42.73,59.45a23.44,23.44,0,0,1-5.2,1.7,3.93,3.93,0,0,1-2.92-.26,4.07,4.07,0,0,1-1.36-2.53c-1-3.53-1.69-7.73-.1-11.19a7.77,7.77,0,0,1,1.29-2l.17.13a9.63,9.63,0,0,0,5.14,1.58l.8,0a9,9,0,0,0,2,4,7.89,7.89,0,0,0,1,1,7.69,7.69,0,0,0-.41,3.24.43.43,0,0,0,.73.31,21.7,21.7,0,0,0,1.94-2.34,7,7,0,0,0,.9.24l.12.29a20.22,20.22,0,0,0,.86,1.92q0,.42.06.84a26.74,26.74,0,0,1-5.08,3.05m-7.6-19.7a17.55,17.55,0,0,1,2.33-2.23,17.87,17.87,0,0,1,5.71-3c.33-.11.68-.22,1-.31a16.83,16.83,0,0,0-2.82,4.58,15.51,15.51,0,0,0-.82,2.74,12.29,12.29,0,0,0-3.76.94A9.12,9.12,0,0,0,34.43,44a2.41,2.41,0,0,1-.53-1.34,4.09,4.09,0,0,1,1.23-2.88m15.28-9.46a17.55,17.55,0,0,0-1,2.89,4.6,4.6,0,0,0-1.3.63,3.36,3.36,0,0,0-1.71-.71,20.1,20.1,0,0,1,4-2.81m8.23-5.7a6,6,0,0,1,4.42,1.81,3.31,3.31,0,0,0-.42.12c-.35.1-.7.22-1,.34a22,22,0,0,0-2.44,0,22.76,22.76,0,0,0-6.64,1.49c1.44-2,3.65-3.68,6.13-3.8m11.11,2.1a4.87,4.87,0,0,1-2.93.46,6.18,6.18,0,0,0-.9-.43,17.52,17.52,0,0,1,3.83,0M71,33.61a10.39,10.39,0,0,0-1.07-3.18l0,0,.24,0,.69.11a12.94,12.94,0,0,1,3.71,3.59A6.5,6.5,0,0,0,71,33.61m5.37,4.5a15.24,15.24,0,0,1-4.56,1.44l-.89.15c-.11-.32-.22-.63-.32-.94,0-.17.11-.34.16-.52a10.14,10.14,0,0,0,.35-3.77,5.69,5.69,0,0,1,2.74.26,4.2,4.2,0,0,1,1.86,1.39,11.61,11.61,0,0,1,.66,2m-1.56,5.81c-.14.16-.29.31-.45.46a25.63,25.63,0,0,0-2.54-1.71c-.06-.23-.13-.47-.2-.7-.13-.48-.28-.95-.43-1.43A17.54,17.54,0,0,0,76.51,39a9.71,9.71,0,0,1,.1,1.21,7.18,7.18,0,0,1-1.82,3.71M60.2,58.07l.6-.3a4.58,4.58,0,0,0,1.08,2.11,3.11,3.11,0,0,0,2.61.86,10.09,10.09,0,0,0,1.91,1.67,31.89,31.89,0,0,1-3.53,1.2A8.58,8.58,0,0,1,59.93,60a14.07,14.07,0,0,1-.57-1.53l.84-.37m-1.46-3.42a11.86,11.86,0,0,0,1.58.06c.06.74.16,1.47.29,2.19q-.72.38-1.47.69a15.3,15.3,0,0,1-.4-2.94m-1-.14.09,0a17.63,17.63,0,0,0,.47,3.39l-.43.16c-.43.15-1.21.55-1.65.24a1,1,0,0,1-.31-.78,9.94,9.94,0,0,0,1.83-3m-9.15-1.09A5.6,5.6,0,0,0,52.52,51l0-.06a2.7,2.7,0,0,0,.33-.22l.32-.22c0,.09.09.18.14.27A26.1,26.1,0,0,1,51.51,53a28.32,28.32,0,0,1-2.75,2.62c0-.09-.1-.18-.16-.27a18.13,18.13,0,0,1,0-1.95M46.4,52.34v0h0l0,0M45.11,47c.09.61.19,1.21.32,1.81a9.73,9.73,0,0,0-1.49,2.28,6.93,6.93,0,0,1-1.39-1.57A8.47,8.47,0,0,1,41.46,47c1.21,0,2.43,0,3.65,0m4-12a4.15,4.15,0,0,0-.35-.57,3.29,3.29,0,0,1,.49-.26c0,.27-.1.55-.14.83m3.61-.51c.19.12.38.25.56.39a4.87,4.87,0,0,0,.07,2A6,6,0,0,0,52,40.22a11.11,11.11,0,0,0-1.31.88c-.26.21-.52.43-.77.66a17.17,17.17,0,0,0-.24-4.86,19.78,19.78,0,0,1,.41-3,3.9,3.9,0,0,1,2.57.58m11.84-6.42c.1.13.2.27.29.41.21.32.42.64.62,1l-.8.09a13.47,13.47,0,0,0-7.12,2.92,8.33,8.33,0,0,0-2.05,2.65l-.46.27a8,8,0,0,0-.81-.84A8,8,0,0,1,56,31.41a13.11,13.11,0,0,1,3.82-2.82,16,16,0,0,1,1.89-.84,19.46,19.46,0,0,1,2.84.33m3.61,1.3c-.58,0-1.16,0-1.74,0-.2-.35-.41-.7-.62-1a19.73,19.73,0,0,1,2,.62c.13.13.26.27.38.41m.66,4.88c-.29-.64-.58-1.29-.89-1.92-.08-.18-.17-.35-.25-.53l.44-.29,1.05-.65a9.62,9.62,0,0,1,1,2.91,7.52,7.52,0,0,0-1.33.48m.32,5.59a4.25,4.25,0,0,0-.54-.32c0-.09,0-.18,0-.27a4.74,4.74,0,0,0-1.29-2.92,8.46,8.46,0,0,1,1.12-.85l.45,1.1c.28.7.54,1.4.8,2.11a12,12,0,0,1-.53,1.15m1.2.84,0,0h0v0m1.81,3.2c.54.33,1.05.69,1.56,1.07a12.34,12.34,0,0,1-1.1.8c-.14-.63-.29-1.25-.46-1.87m-.58,2.49c0-.21.11-.41.15-.62,0,.16.07.32.11.48l-.26.14M70.22,49.3a14.39,14.39,0,0,0,.91-1.74q.44-.21.87-.45.19.89.36,1.77a17.85,17.85,0,0,1-1.93,1.54c-.06-.38-.13-.75-.21-1.12m-1.61,2.23L69,51c.17-.22.35-.46.52-.7,0,.21.06.42.08.64-.33.21-.68.4-1,.59m-3.78,8.28a9.3,9.3,0,0,1-1.7-3.38l.39-.26a23.77,23.77,0,0,0,3.59-3l.34-.14a17.87,17.87,0,0,1,1.78,2.24,7,7,0,0,1-2.35,3.55,5.32,5.32,0,0,1-2,1m-2.46-2.9a10,10,0,0,0,1.44,3,2.16,2.16,0,0,1-1.69-1.08,5.11,5.11,0,0,1-.55-1.42c.27-.15.54-.3.8-.46M62,54.56a10.26,10.26,0,0,0,.12,1.34l0,.12c-.26.15-.51.31-.77.45,0-.13,0-.26,0-.4q-.1-.7-.15-1.41l.82-.1m-.89-1.48c.37-.12.74-.25,1.09-.39-.07.32-.12.65-.16,1l-.91.11c0-.24,0-.48,0-.71m-2.42.44a9.88,9.88,0,0,0,1.53-.21c0,.17,0,.35,0,.53a11.42,11.42,0,0,1-1.55-.07v-.25m-1.77.77a10.4,10.4,0,0,1-.83,1.63,12.51,12.51,0,0,1,.41-1.79l.42.16m-5.33-3.77a3,3,0,0,1-2.61.31c0-.22.11-.44.17-.66a13.2,13.2,0,0,1,1.12-2.85,5.06,5.06,0,0,0,1.64,2.4,2.48,2.48,0,0,0,.26.19c-.07.14-.15.28-.23.42l-.35.19m-2.78,1.17a3.16,3.16,0,0,0,1.73.09,4.59,4.59,0,0,1-1.85.74l.12-.83m-1.95-3.15a4.37,4.37,0,0,0,.15,1c-.13.25-.25.5-.38.74-.11-.39-.21-.78-.3-1.18.17-.18.34-.34.53-.51M47,46.93a3.5,3.5,0,0,0-.07.45,8.21,8.21,0,0,0-.77.67c-.07-.37-.13-.73-.19-1.09l1,0m7.07-10.82a4.17,4.17,0,0,1,0-.5l.25.29-.24.21m12.56-.37A7.63,7.63,0,0,0,64,34.45C65,33.68,66,33,67,32.27c.38.79.74,1.59,1.09,2.39a9.33,9.33,0,0,0-1.44,1.08m-1.87,3.77a15.16,15.16,0,0,1,1.92-2.58l0,0a4,4,0,0,1,1,2.24,4.58,4.58,0,0,0-2.94.29m5,7.7-.24.1q-.11-.27-.24-.54c.52-.32,1-.66,1.52-1a8.72,8.72,0,0,1-.37,1.16c-.22.11-.44.21-.67.3m.07.91.07,0a.22.22,0,0,1,0,.08.11.11,0,0,0,0-.05M66,50.39c.33-.28.65-.58,1-.89l.51-.55,1.25-.4.35-.13c.09.25.16.5.23.75a19.11,19.11,0,0,1-2,2.52c-.43-.45-.87-.88-1.33-1.3m-1.69-.31.33.28a10.11,10.11,0,0,1-.87.58,7.73,7.73,0,0,1,.54-.86m-3-.47a14.33,14.33,0,0,0,2.27,0,9,9,0,0,0-1,2,11.54,11.54,0,0,1-1.42.54c0-.85.08-1.69.18-2.53M47.74,47.84h0M48.35,46H48.1a8.8,8.8,0,0,1,.55-1.21q-.13.6-.3,1.2M60,36.94l-.81.09h-.09a3.29,3.29,0,0,0-.57-1.28,2,2,0,0,0-.69-.59A13.07,13.07,0,0,1,62,35h.07c-.72.64-1.43,1.3-2.12,2m3.37.81A4,4,0,0,0,61.19,37c.66-.63,1.33-1.24,2-1.83A6.9,6.9,0,0,1,66,36.32a16.85,16.85,0,0,0-1.84,2.41,3.27,3.27,0,0,0-.84-1m5.31,9.56c0,.1.09.2.13.3l-.39.14c.09-.14.18-.29.26-.44m-2.73,1.13c.45-.16.89-.35,1.32-.55l-.24.29c-.36.1-.72.19-1.08.26m0,.88-.56.5L65,49.49l1-.17m-8,1.49c-.13.6-.27,1.21-.44,1.8l-.43-.06A14.12,14.12,0,0,1,58,50.81m-3.43-.18a5.9,5.9,0,0,0,1.19-.05,6.2,6.2,0,0,0,1.66-.47,16.36,16.36,0,0,0-1.12,2.21,4,4,0,0,1-1.71-1.25,2,2,0,0,1-.17-.23l.15-.21m-.64-2.38.34.08c-.11.14-.23.28-.35.41,0-.17,0-.33,0-.49m-1.43-1.61c0,.1.07.19.1.29a5.59,5.59,0,0,1-.63-.26l.53,0m-3.08-1.22a2.87,2.87,0,0,0,.18.4l-.32.14c0-.18.1-.36.14-.54m3.08-2.16c-.21.18-.43.38-.63.58l-.25.24a9.51,9.51,0,0,0-1-.69,9.3,9.3,0,0,1,.55-.76,12.82,12.82,0,0,1,1-1.1,8.52,8.52,0,0,0,.4,1.73m1.85-4.54c-.23.13-.44.27-.66.41a5.22,5.22,0,0,1,.29-.87,3.24,3.24,0,0,0,.37.46m.35-.94c-.09-.13-.16-.27-.24-.41a5.17,5.17,0,0,1,.42-.51,7.12,7.12,0,0,0-.18.92m3.68.78v.11l0,0a12.65,12.65,0,0,0-1.51,0,1.46,1.46,0,0,0-.07-.19c.32-.12.64-.23,1-.32l.65-.17a4.34,4.34,0,0,1,0,.51m10.9,2.81.08-.12a2.39,2.39,0,0,1,.13.21l-.21-.09M55.55,49.06l.24-.41c.71.11,1.42.18,2.14.22a6.45,6.45,0,0,1-1.94.79,5.29,5.29,0,0,1-.89.12l.45-.72m-1.34-2.57.19,0c.21.23.42.44.64.64a2.48,2.48,0,0,1-.18.31l-.08.13L54,47.36a6.87,6.87,0,0,1,.21-.87m-3.63-1.23c-.08-.32-.16-.65-.23-1a4.94,4.94,0,0,1,.65.44l-.42.54m2.68-.33-.48,0-.26,0-.3-.34c.19-.2.39-.39.59-.57.14.28.29.56.45.83m4.26-5.33-.1,0h.13l0,0m2.67.42h0l-.33,0V39.8l.27.07a1,1,0,0,1,.11.15m8.09,1s0-.07,0-.11h.18l-.12.16-.1,0m-.54,3.14a1.11,1.11,0,0,1,.63.92c-.2-.32-.41-.62-.63-.92M55,43l-.36.31c-.17.16-.33.32-.49.49-.07-.17-.13-.34-.19-.52a12.32,12.32,0,0,1,1.43-.86L55,43M67,41.5a6.43,6.43,0,0,1-.8.86,13.76,13.76,0,0,0-1.43-1.22v-.07h.47A17.41,17.41,0,0,1,67,41.5m.82,4.23A10.75,10.75,0,0,1,64,47.4c-.49.12-1,.23-1.49.32l-.83-.51c0-.06,0-.14,0-.21a18.69,18.69,0,0,0,4.91-2.87,13.57,13.57,0,0,1,1.14,1.59h0M60.47,48l.25-.24,0,.22-.21,0m0-7.06a1.7,1.7,0,0,1,0,.39q-.34,0-.69,0v-.34l.4,0,.29,0m3.44,2.89a6.15,6.15,0,0,0,.67-1.69,10.92,10.92,0,0,1,.9.78,9.86,9.86,0,0,1-1.57.91m-6.13-2.26c-.19,0-.38.1-.57.16v-.14l.61-.19a.85.85,0,0,0,0,.17m3.56-.36V41l.39,0-.39.18m1.24,3.11-.1,0a25.68,25.68,0,0,1,1.19-2.88l.15.1a6.3,6.3,0,0,1-1.24,2.75m-3.69-1.68-.67.49c.09-.27.17-.55.25-.83a3.21,3.21,0,0,1,.43-.07c0,.13,0,.27,0,.41m2.17.25a19.49,19.49,0,0,0-1,1.7l-.41,0,.09-1.43a15.77,15.77,0,0,1,2-1.13c-.24.29-.46.6-.67.91m.07,3c-.27.21-.54.44-.8.68l-.19-.09c.14-.33.28-.65.43-1,.23,0,.45,0,.67,0,0,.13-.07.26-.11.4m-4.09.36h0a13.24,13.24,0,0,1,1.51.48c0,.16,0,.32-.05.48-.67.17-1.61.35-1.81-.26l.33-.7m1.43-2-.13-.06.49-.39,0,.58-.33-.13m1.1,1.2h.09l-.12.25,0-.26m-1.92-.64a5.64,5.64,0,0,0,.92.39l-1.14.15c.08-.18.15-.36.22-.54h0m3.86-.2-.48,0c.21-.39.45-.78.69-1.16.12-.18.25-.36.39-.55l-.12.31q-.26.66-.48,1.35m-4-2-.27.85-.1-.09c0-.21.05-.43.06-.64l.31-.12M59,41.1v.23l-.21,0a1.89,1.89,0,0,1,0-.23l.17,0m-3.35,2.45.36-.26.28.33a10.47,10.47,0,0,1-.33,1.45c-.37-.06-.74-.1-1.1-.13.11-.24.24-.47.37-.7a7.92,7.92,0,0,1,.42-.69m0-3.8a6.27,6.27,0,0,0,.58.29c.06.3.1.62.13.93l-.53.21a6.39,6.39,0,0,1-.32-1.39l.14,0m0-1.7-.15.07c0-.11,0-.22,0-.32a1.89,1.89,0,0,1,.11.25m-2.15,2.39A10.51,10.51,0,0,1,54.66,40,7.54,7.54,0,0,0,55,41.56a14.15,14.15,0,0,0-1.36.79,8.15,8.15,0,0,1-.19-1.91m16.26,2.39a3.18,3.18,0,0,1-.63,1.6,1.9,1.9,0,0,0-.7-.9,2.19,2.19,0,0,0-.71-.33,13,13,0,0,0,1-1.1c.35.15.7.3,1,.47a2.35,2.35,0,0,1,0,.26m-8.1-4.93a2.81,2.81,0,0,1,2,1.72l-.18.32-.75,0c-.34-.17-.69-.32-1-.46a10.77,10.77,0,0,0-1.18-.38,2.79,2.79,0,0,0-.83-.57l.69-.72a5.4,5.4,0,0,1,1.28.13m-3.77-1.55a2.48,2.48,0,0,1,.36.85,12.91,12.91,0,0,0-1.81.53,5.86,5.86,0,0,0-.26-.57,5.71,5.71,0,0,0-.35-.64c.06-.18.13-.36.2-.54a1.39,1.39,0,0,1,1.86.37m13.16,8c-.42.18-.84.36-1.25.56a4.25,4.25,0,0,0,.8-2l.32.18A4.59,4.59,0,0,1,71,44.39m-22.75,5.8a2.65,2.65,0,0,1-.33-.65,22,22,0,0,0,1-2.44,4.11,4.11,0,0,1,.51-.27h.16a14.51,14.51,0,0,0-1.3,3.37m4.22-1.11a4,4,0,0,1-1.33-1.84,4.59,4.59,0,0,0,.5.24c.3.13.6.25.91.36,0,.24,0,.48.05.72a4.87,4.87,0,0,1-.12.52h0m6.25,3.54c0-.34,0-.67.08-1a17.41,17.41,0,0,1,.41-2.38c.4.11.8.19,1.2.26a25.35,25.35,0,0,0-.2,2.89,10.73,10.73,0,0,1-1.49.23m5.57.6c-.43.11-.9.22-1.39.31a7.41,7.41,0,0,1,.3-1.3c.29-.14.56-.29.83-.44a13.38,13.38,0,0,0,1.27-.85c.49.45,1,.91,1.43,1.38a1.59,1.59,0,0,0-.13.13,19.55,19.55,0,0,1-2.31.77m-1.4,2.14a7.44,7.44,0,0,1-.05-.93q.65-.12,1.26-.27l.94-.25A25.16,25.16,0,0,1,63,55.52l0-.16m3.94-25.14c.55,0,1.1,0,1.64,0L67.27,31c-.13-.27-.27-.54-.41-.81m-.28,1.27c-1.25.85-2.45,1.75-3.61,2.72a12.81,12.81,0,0,0-6.21.36,4.59,4.59,0,0,1,.33-.44,10,10,0,0,1,3.83-2.74,16,16,0,0,1,5-1.13c.23.41.45.82.67,1.23M48.05,35a3.53,3.53,0,0,1,.46.83,6.44,6.44,0,0,1,.36,1.23A26.16,26.16,0,0,0,49,41.22c0,.24.06.49.1.73s0,.5-.08.75l-.47-.16a24,24,0,0,0-2.86-.75A15.07,15.07,0,0,1,46,39.36,8.64,8.64,0,0,1,48.05,35M45.8,45.64c-.09-1-.15-2-.15-3,.73.14,1.46.32,2.17.53l.67.22a10.12,10.12,0,0,0-1.08,2c-.08.19-.14.38-.21.58l-1.35,0c0-.15,0-.3-.05-.45m1.52,6.73q-.18-.48-.33-1l.48-.86.13.2a3.13,3.13,0,0,0,.45.5c0,.2-.07.4-.1.6s-.07.51-.1.77l-.46,0-.07-.2M69.5,54.18a15.94,15.94,0,0,0-1.1-1.36l-.13-.15c.48-.24,1-.5,1.42-.77a11.7,11.7,0,0,1-.19,2.28m.76-19.27a9.29,9.29,0,0,1-.2,2.43c-.29-.76-.59-1.52-.91-2.27a7.21,7.21,0,0,1,1.09-.42,2.28,2.28,0,0,1,0,.26M59.48,27.76a13.48,13.48,0,0,0-3.93,2.85A9.59,9.59,0,0,0,53.48,34,5.74,5.74,0,0,0,52,33.24,4.07,4.07,0,0,0,50.34,33a15.51,15.51,0,0,1,1.37-3.36,21.94,21.94,0,0,1,7.77-1.89m-13.9,6.16a4,4,0,0,1,.92.06,2.27,2.27,0,0,1,.94.4l-.15.16a9.76,9.76,0,0,0-2.21,4.82,17.29,17.29,0,0,0-.26,2.28,18.28,18.28,0,0,0-3.38-.21A15.74,15.74,0,0,1,45.52,34l.06-.06M40.39,46.07A13.31,13.31,0,0,1,37,45.54a6.31,6.31,0,0,1-2-1,7.82,7.82,0,0,1,1.85-1.25,10.38,10.38,0,0,1,3.5-.93,13.27,13.27,0,0,0,0,3.67m.77-2.65c0-.36.06-.72.11-1.09h1a19.47,19.47,0,0,1,2.53.21A30,30,0,0,0,45,46.1H41.28a11.37,11.37,0,0,1-.12-2.67m3.49,8.16a8.19,8.19,0,0,1,1-1.73c.11.48.24.95.39,1.42-.17.27-.33.53-.51.79a7.77,7.77,0,0,1-.9-.48M44,54a7.53,7.53,0,0,1,.3-1.64,6.94,6.94,0,0,0,.71.38c-.32.43-.66.85-1,1.26m3.68-.59h.06a.37.37,0,0,0,0,.11l-.05-.12m7.06,4a3.38,3.38,0,0,1-4.44.06,6.42,6.42,0,0,1-1.1-1.17,29.51,29.51,0,0,0,4.52-4.69,5.37,5.37,0,0,0,2,2.06,15.58,15.58,0,0,0-.61,3.17c0,.09,0,.17,0,.26s-.22.21-.33.31m14.11,3.67a14.29,14.29,0,0,1-1.54.84l-.66-.42a9.12,9.12,0,0,1-1.22-1A6.69,6.69,0,0,0,68.87,58a9.29,9.29,0,0,0,.93-1.73,7.55,7.55,0,0,1,.94,3.41,8.63,8.63,0,0,1-1.85,1.5m-.58,1.33A11.53,11.53,0,0,0,70.62,61a4.76,4.76,0,0,1-.91,2,9.71,9.71,0,0,1-1.4-.5m4.48-7.94a8.75,8.75,0,0,1-1.2,4l-.08.12a9.78,9.78,0,0,0-1.35-3.52,11.76,11.76,0,0,0,.37-3.79,20,20,0,0,0,2-1.51,21.68,21.68,0,0,1,.27,4.68m2-8.69.08.06-.34.5a16.22,16.22,0,0,1-1.46,1.76c-.09-.51-.19-1-.3-1.52a14.11,14.11,0,0,0,1.6-1.15l.42.35M119,31.48a9.86,9.86,0,0,1-10.72,3c-3.8-1.35-6.23-5-9.24-7.46a13.21,13.21,0,0,0-5.64-2.89A21.58,21.58,0,0,0,86.24,24a44.76,44.76,0,0,0-12.38,3.42c-1.2.53-2.37,1.11-3.51,1.73a17.12,17.12,0,0,0-2.13-1,1.29,1.29,0,0,1-.17-.16,5.72,5.72,0,0,0,3.19-1.32.43.43,0,0,0-.19-.72,18.68,18.68,0,0,0-7,.15A9.78,9.78,0,0,0,62.78,25,6.87,6.87,0,0,0,55,24.91,11.39,11.39,0,0,0,51.07,29a20.88,20.88,0,0,0-2.62,1.46,20.29,20.29,0,0,0-3.28,2.64h-.08a16.85,16.85,0,0,0-6.49,2.54,19,19,0,0,0-2.81,2.17,11,11,0,0,0-2.24,2.67,3.64,3.64,0,0,0,.28,4.07,8.62,8.62,0,0,0-1.26,1.83,12.24,12.24,0,0,0-1.17,5.91,26.14,26.14,0,0,0,1,6.15,5.94,5.94,0,0,0,1.29,2.78,3.63,3.63,0,0,0,2.87.91,18.28,18.28,0,0,0,5.83-1.61,27.05,27.05,0,0,0,5.18-2.88l.37-.27a14.12,14.12,0,0,0,.93,3.37,8,8,0,0,0,2.56,3.36,7.82,7.82,0,0,0,3.81,1.43,18.58,18.58,0,0,0,7.52-1,6.79,6.79,0,0,0,3,.91,5.72,5.72,0,0,0,3.59-.94A4.85,4.85,0,0,0,70,64a14,14,0,0,0,5.25.17c2.7-.41,5.92-1.54,7.39-4.05,1.65-2.83.23-6.17-1.46-8.6A32.4,32.4,0,0,0,76,45.73a10.73,10.73,0,0,0,1.46-5c0-.15,0-.29,0-.44a6.93,6.93,0,0,0,0-1.82,7,7,0,0,0,2.13-2.14.9.9,0,0,0,.24-.76,4.57,4.57,0,0,0-.46-.84,8.86,8.86,0,0,0-1-1.35,12.32,12.32,0,0,0-6.18-3.4c-.31-.08-.63-.15-.94-.21a.05.05,0,0,0,0,0,43.77,43.77,0,0,1,13.52-4.58,27.64,27.64,0,0,1,6.48-.41,12.31,12.31,0,0,1,5.93,2,28.47,28.47,0,0,1,4.17,3.67c2.56,2.56,5.28,5.09,9,5.49a10.72,10.72,0,0,0,9.29-3.75c.35-.43-.26-1.05-.61-.62" transform="translate(0 0)"/><path class="cls-6" d="M77.92,34.13a7.9,7.9,0,0,1,1,1.56,6.4,6.4,0,0,1-1.66,1.81,5.45,5.45,0,0,0-.9-1.88A13.74,13.74,0,0,0,73,31.07,10.69,10.69,0,0,1,77.92,34.13ZM75,44.92a9.46,9.46,0,0,0,.89-1,11,11,0,0,1-.59,1.25ZM80.51,52c1.54,2.24,2.92,5.34,1.21,7.87a7.06,7.06,0,0,1-3,2.33,13.84,13.84,0,0,1-4.05,1.11,13.23,13.23,0,0,1-4-.14,5.84,5.84,0,0,0,.86-2.11A6.86,6.86,0,0,0,71.59,60c1.89-2.23,2.25-5.21,2-8.08-.08-.91-.19-1.82-.34-2.73a15.9,15.9,0,0,0,2.28-2.71A30.84,30.84,0,0,1,80.51,52ZM68.86,63.78a5,5,0,0,1-3.29.78,5.8,5.8,0,0,1-1.63-.39c1.12-.36,2.27-.74,3.37-1.21a10.42,10.42,0,0,0,1.69.71ZM61.55,64c-2.46.66-5.18,1.19-7.68.43-2.69-.83-4.2-3.2-4.83-5.84-.1-.46-.19-.92-.26-1.39a6.05,6.05,0,0,0,1.53,1.41,4.18,4.18,0,0,0,4.91-.35l0,0a1.39,1.39,0,0,0,1.38,1.07,5.39,5.39,0,0,0,1.84-.48l.11,0a13,13,0,0,0,.83,2.09,9.21,9.21,0,0,0,2.42,3.06ZM42.73,59.45a23.44,23.44,0,0,1-5.2,1.7,3.93,3.93,0,0,1-2.92-.26,4.07,4.07,0,0,1-1.36-2.53c-1-3.53-1.69-7.73-.1-11.19a7.77,7.77,0,0,1,1.29-2l.17.13a9.63,9.63,0,0,0,5.14,1.58l.8,0a9,9,0,0,0,2,4,7.89,7.89,0,0,0,1,1,7.69,7.69,0,0,0-.41,3.24.43.43,0,0,0,.73.31,21.7,21.7,0,0,0,1.94-2.34,7,7,0,0,0,.9.24l.12.29a20.22,20.22,0,0,0,.86,1.92q0,.42.06.84A26.74,26.74,0,0,1,42.73,59.45Zm-7.6-19.7a17.55,17.55,0,0,1,2.33-2.23,17.87,17.87,0,0,1,5.71-3c.33-.11.68-.22,1-.31a16.83,16.83,0,0,0-2.82,4.58,15.51,15.51,0,0,0-.82,2.74,12.29,12.29,0,0,0-3.76.94A9.12,9.12,0,0,0,34.43,44a2.41,2.41,0,0,1-.53-1.34A4.09,4.09,0,0,1,35.13,39.75Zm15.28-9.46a17.55,17.55,0,0,0-1,2.89,4.6,4.6,0,0,0-1.3.63,3.36,3.36,0,0,0-1.71-.71A20.1,20.1,0,0,1,50.41,30.29Zm8.23-5.7a6,6,0,0,1,4.42,1.81,3.31,3.31,0,0,0-.42.12c-.35.1-.7.22-1,.34a22,22,0,0,0-2.44,0,22.76,22.76,0,0,0-6.64,1.49C54,26.41,56.16,24.71,58.64,24.59Zm11.11,2.1a4.87,4.87,0,0,1-2.93.46,6.18,6.18,0,0,0-.9-.43A17.52,17.52,0,0,1,69.75,26.69ZM71,33.61a10.39,10.39,0,0,0-1.07-3.18l0,0,.24,0,.69.11a12.94,12.94,0,0,1,3.71,3.59A6.5,6.5,0,0,0,71,33.61Zm5.37,4.5a15.24,15.24,0,0,1-4.56,1.44l-.89.15c-.11-.32-.22-.63-.32-.94,0-.17.11-.34.16-.52a10.14,10.14,0,0,0,.35-3.77,5.69,5.69,0,0,1,2.74.26,4.2,4.2,0,0,1,1.86,1.39A11.61,11.61,0,0,1,76.35,38.11Zm-1.56,5.81c-.14.16-.29.31-.45.46a25.63,25.63,0,0,0-2.54-1.71c-.06-.23-.13-.47-.2-.7-.13-.48-.28-.95-.43-1.43A17.54,17.54,0,0,0,76.51,39a9.71,9.71,0,0,1,.1,1.21A7.18,7.18,0,0,1,74.79,43.92ZM60.2,58.07l.6-.3a4.58,4.58,0,0,0,1.08,2.11,3.11,3.11,0,0,0,2.61.86,10.09,10.09,0,0,0,1.91,1.67,31.89,31.89,0,0,1-3.53,1.2A8.58,8.58,0,0,1,59.93,60a14.07,14.07,0,0,1-.57-1.53Zm-1.46-3.42a11.86,11.86,0,0,0,1.58.06c.06.74.16,1.47.29,2.19q-.72.38-1.47.69A15.3,15.3,0,0,1,58.74,54.65Zm-1-.14.09,0a17.63,17.63,0,0,0,.47,3.39l-.43.16c-.43.15-1.21.55-1.65.24a1,1,0,0,1-.31-.78A9.94,9.94,0,0,0,57.78,54.51Zm-9.15-1.09A5.6,5.6,0,0,0,52.52,51l0-.06a2.7,2.7,0,0,0,.33-.22l.32-.22c0,.09.09.18.14.27A26.1,26.1,0,0,1,51.51,53a28.32,28.32,0,0,1-2.75,2.62c0-.09-.1-.18-.16-.27A18.13,18.13,0,0,1,48.63,53.42ZM46.4,52.34v0h0ZM45.11,47c.09.61.19,1.21.32,1.81a9.73,9.73,0,0,0-1.49,2.28,6.93,6.93,0,0,1-1.39-1.57A8.47,8.47,0,0,1,41.46,47C42.67,47,43.89,47,45.11,47Zm4-12a4.15,4.15,0,0,0-.35-.57,3.29,3.29,0,0,1,.49-.26C49.17,34.45,49.12,34.73,49.08,35Zm3.61-.51c.19.12.38.25.56.39a4.87,4.87,0,0,0,.07,2A6,6,0,0,0,52,40.22a11.11,11.11,0,0,0-1.31.88c-.26.21-.52.43-.77.66a17.17,17.17,0,0,0-.24-4.86,19.78,19.78,0,0,1,.41-3A3.9,3.9,0,0,1,52.69,34.5Zm11.84-6.42c.1.13.2.27.29.41.21.32.42.64.62,1l-.8.09a13.47,13.47,0,0,0-7.12,2.92,8.33,8.33,0,0,0-2.05,2.65l-.46.27a8,8,0,0,0-.81-.84A8,8,0,0,1,56,31.41a13.11,13.11,0,0,1,3.82-2.82,16,16,0,0,1,1.89-.84A19.46,19.46,0,0,1,64.53,28.08Zm3.61,1.3c-.58,0-1.16,0-1.74,0-.2-.35-.41-.7-.62-1a19.73,19.73,0,0,1,2,.62C67.89,29.1,68,29.24,68.14,29.38Zm.66,4.88c-.29-.64-.58-1.29-.89-1.92-.08-.18-.17-.35-.25-.53l.44-.29,1.05-.65a9.62,9.62,0,0,1,1,2.91A7.52,7.52,0,0,0,68.8,34.26Zm.32,5.59a4.25,4.25,0,0,0-.54-.32c0-.09,0-.18,0-.27a4.74,4.74,0,0,0-1.29-2.92,8.46,8.46,0,0,1,1.12-.85l.45,1.1c.28.7.54,1.4.8,2.11A12,12,0,0,1,69.12,39.85Zm1.2.84,0,0h0Zm1.81,3.2c.54.33,1.05.69,1.56,1.07a12.34,12.34,0,0,1-1.1.8C72.45,45.13,72.3,44.51,72.13,43.89Zm-.58,2.49c0-.21.11-.41.15-.62,0,.16.07.32.11.48ZM70.22,49.3a14.39,14.39,0,0,0,.91-1.74q.44-.21.87-.45.19.89.36,1.77a17.85,17.85,0,0,1-1.93,1.54C70.37,50,70.3,49.67,70.22,49.3Zm-1.61,2.23L69,51c.17-.22.35-.46.52-.7,0,.21.06.42.08.64C69.3,51.15,69,51.34,68.61,51.53Zm-3.78,8.28a9.3,9.3,0,0,1-1.7-3.38l.39-.26a23.77,23.77,0,0,0,3.59-3l.34-.14a17.87,17.87,0,0,1,1.78,2.24,7,7,0,0,1-2.35,3.55A5.32,5.32,0,0,1,64.83,59.81Zm-2.46-2.9a10,10,0,0,0,1.44,3,2.16,2.16,0,0,1-1.69-1.08,5.11,5.11,0,0,1-.55-1.42C61.84,57.22,62.11,57.07,62.37,56.91ZM62,54.56a10.26,10.26,0,0,0,.12,1.34l0,.12c-.26.15-.51.31-.77.45,0-.13,0-.26,0-.4q-.1-.7-.15-1.41Zm-.89-1.48c.37-.12.74-.25,1.09-.39-.07.32-.12.65-.16,1l-.91.11C61.14,53.55,61.13,53.31,61.13,53.08Zm-2.42.44a9.88,9.88,0,0,0,1.53-.21c0,.17,0,.35,0,.53a11.42,11.42,0,0,1-1.55-.07Zm-1.77.77a10.4,10.4,0,0,1-.83,1.63,12.51,12.51,0,0,1,.41-1.79Zm-5.33-3.77a3,3,0,0,1-2.61.31c0-.22.11-.44.17-.66a13.2,13.2,0,0,1,1.12-2.85,5.06,5.06,0,0,0,1.64,2.4,2.48,2.48,0,0,0,.26.19c-.07.14-.15.28-.23.42Zm-2.78,1.17a3.16,3.16,0,0,0,1.73.09,4.59,4.59,0,0,1-1.85.74Zm-1.95-3.15a4.37,4.37,0,0,0,.15,1c-.13.25-.25.5-.38.74-.11-.39-.21-.78-.3-1.18C46.52,48.87,46.69,48.71,46.88,48.54ZM47,46.93a3.5,3.5,0,0,0-.07.45,8.21,8.21,0,0,0-.77.67c-.07-.37-.13-.73-.19-1.09Zm7.07-10.82a4.17,4.17,0,0,1,0-.5l.25.29Zm12.56-.37A7.63,7.63,0,0,0,64,34.45C65,33.68,66,33,67,32.27c.38.79.74,1.59,1.09,2.39A9.33,9.33,0,0,0,66.62,35.74Zm-1.87,3.77a15.16,15.16,0,0,1,1.92-2.58l0,0a4,4,0,0,1,1,2.24A4.58,4.58,0,0,0,64.75,39.51Zm5,7.7-.24.1q-.11-.27-.24-.54c.52-.32,1-.66,1.52-1a8.72,8.72,0,0,1-.37,1.16C70.25,47,70,47.12,69.8,47.21Zm.07.91.07,0a.22.22,0,0,1,0,.08A.11.11,0,0,0,69.87,48.12ZM66,50.39c.33-.28.65-.58,1-.89l.51-.55,1.25-.4.35-.13c.09.25.16.5.23.75a19.11,19.11,0,0,1-2,2.52C66.92,51.24,66.48,50.81,66,50.39Zm-1.69-.31.33.28a10.11,10.11,0,0,1-.87.58A7.73,7.73,0,0,1,64.33,50.08Zm-3-.47a14.33,14.33,0,0,0,2.27,0,9,9,0,0,0-1,2,11.54,11.54,0,0,1-1.42.54C61.15,51.29,61.21,50.45,61.31,49.61ZM47.74,47.84h0ZM48.35,46H48.1a8.8,8.8,0,0,1,.55-1.21Q48.52,45.41,48.35,46ZM60,36.94l-.81.09h-.09a3.29,3.29,0,0,0-.57-1.28,2,2,0,0,0-.69-.59A13.07,13.07,0,0,1,62,35h.07C61.37,35.6,60.66,36.26,60,36.94Zm3.37.81A4,4,0,0,0,61.19,37c.66-.63,1.33-1.24,2-1.83A6.9,6.9,0,0,1,66,36.32a16.85,16.85,0,0,0-1.84,2.41A3.27,3.27,0,0,0,63.34,37.75Zm5.31,9.56c0,.1.09.2.13.3l-.39.14C68.48,47.61,68.57,47.46,68.65,47.31Zm-2.73,1.13c.45-.16.89-.35,1.32-.55l-.24.29C66.64,48.28,66.28,48.37,65.92,48.44Zm0,.88-.56.5L65,49.49Zm-8,1.49c-.13.6-.27,1.21-.44,1.8l-.43-.06A14.12,14.12,0,0,1,58,50.81Zm-3.43-.18a5.9,5.9,0,0,0,1.19-.05,6.2,6.2,0,0,0,1.66-.47,16.36,16.36,0,0,0-1.12,2.21,4,4,0,0,1-1.71-1.25,2,2,0,0,1-.17-.23Zm-.64-2.38.34.08c-.11.14-.23.28-.35.41C53.88,48.57,53.88,48.41,53.89,48.25Zm-1.43-1.61c0,.1.07.19.1.29a5.59,5.59,0,0,1-.63-.26Zm-3.08-1.22a2.87,2.87,0,0,0,.18.4l-.32.14C49.29,45.78,49.34,45.6,49.38,45.42Zm3.08-2.16c-.21.18-.43.38-.63.58l-.25.24a9.51,9.51,0,0,0-1-.69,9.3,9.3,0,0,1,.55-.76,12.82,12.82,0,0,1,1-1.1A8.52,8.52,0,0,0,52.46,43.26Zm1.85-4.54c-.23.13-.44.27-.66.41a5.22,5.22,0,0,1,.29-.87A3.24,3.24,0,0,0,54.31,38.72Zm.35-.94c-.09-.13-.16-.27-.24-.41a5.17,5.17,0,0,1,.42-.51A7.12,7.12,0,0,0,54.66,37.78Zm3.68.78v.11l0,0a12.65,12.65,0,0,0-1.51,0,1.46,1.46,0,0,0-.07-.19c.32-.12.64-.23,1-.32l.65-.17A4.34,4.34,0,0,1,58.34,38.56Zm10.9,2.81.08-.12a2.39,2.39,0,0,1,.13.21ZM55.55,49.06l.24-.41c.71.11,1.42.18,2.14.22a6.45,6.45,0,0,1-1.94.79,5.29,5.29,0,0,1-.89.12Zm-1.34-2.57.19,0c.21.23.42.44.64.64a2.48,2.48,0,0,1-.18.31l-.08.13L54,47.36A6.87,6.87,0,0,1,54.21,46.49Zm-3.63-1.23c-.08-.32-.16-.65-.23-1a4.94,4.94,0,0,1,.65.44Zm2.68-.33-.48,0-.26,0-.3-.34c.19-.2.39-.39.59-.57C53,44.38,53.1,44.66,53.26,44.93Zm4.26-5.33-.1,0h.13Zm2.67.42h0l-.33,0V39.8l.27.07A1,1,0,0,1,60.19,40Zm8.09,1s0-.07,0-.11h.18l-.12.16Zm-.54,3.14a1.11,1.11,0,0,1,.63.92C68.17,44.73,68,44.43,67.74,44.13ZM55,43l-.36.31c-.17.16-.33.32-.49.49-.07-.17-.13-.34-.19-.52a12.32,12.32,0,0,1,1.43-.86ZM67,41.5a6.43,6.43,0,0,1-.8.86,13.76,13.76,0,0,0-1.43-1.22v-.07h.47A17.41,17.41,0,0,1,67,41.5Zm.82,4.23A10.75,10.75,0,0,1,64,47.4c-.49.12-1,.23-1.49.32l-.83-.51c0-.06,0-.14,0-.21a18.69,18.69,0,0,0,4.91-2.87,13.57,13.57,0,0,1,1.14,1.59ZM60.47,48l.25-.24,0,.22Zm0-7.06a1.7,1.7,0,0,1,0,.39q-.34,0-.69,0v-.34l.4,0Zm3.44,2.89a6.15,6.15,0,0,0,.67-1.69,10.92,10.92,0,0,1,.9.78A9.86,9.86,0,0,1,63.94,43.81Zm-6.13-2.26c-.19,0-.38.1-.57.16v-.14l.61-.19A.85.85,0,0,0,57.81,41.55Zm3.56-.36V41l.39,0Zm1.24,3.11-.1,0a25.68,25.68,0,0,1,1.19-2.88l.15.1A6.3,6.3,0,0,1,62.61,44.3Zm-3.69-1.68-.67.49c.09-.27.17-.55.25-.83a3.21,3.21,0,0,1,.43-.07C58.93,42.34,58.92,42.48,58.92,42.62Zm2.17.25a19.49,19.49,0,0,0-1,1.7l-.41,0,.09-1.43a15.77,15.77,0,0,1,2-1.13C61.52,42.25,61.3,42.56,61.09,42.87Zm.07,3c-.27.21-.54.44-.8.68l-.19-.09c.14-.33.28-.65.43-1,.23,0,.45,0,.67,0C61.24,45.55,61.2,45.68,61.16,45.82Zm-4.09.36h0a13.24,13.24,0,0,1,1.51.48c0,.16,0,.32-.05.48-.67.17-1.61.35-1.81-.26Zm1.43-2-.13-.06.49-.39,0,.58Zm1.1,1.2h.09l-.12.25Zm-1.92-.64a5.64,5.64,0,0,0,.92.39l-1.14.15c.08-.18.15-.36.22-.54Zm3.86-.2-.48,0c.21-.39.45-.78.69-1.16.12-.18.25-.36.39-.55l-.12.31Q61.77,43.84,61.54,44.53Zm-4-2-.27.85-.1-.09c0-.21.05-.43.06-.64ZM59,41.1v.23l-.21,0a1.89,1.89,0,0,1,0-.23Zm-3.35,2.45.36-.26.28.33a10.47,10.47,0,0,1-.33,1.45c-.37-.06-.74-.1-1.1-.13.11-.24.24-.47.37-.7A7.92,7.92,0,0,1,55.61,43.55Zm0-3.8a6.27,6.27,0,0,0,.58.29c.06.3.1.62.13.93l-.53.21a6.39,6.39,0,0,1-.32-1.39Zm0-1.7-.15.07c0-.11,0-.22,0-.32A1.89,1.89,0,0,1,55.63,38.05Zm-2.15,2.39A10.51,10.51,0,0,1,54.66,40,7.54,7.54,0,0,0,55,41.56a14.15,14.15,0,0,0-1.36.79A8.15,8.15,0,0,1,53.48,40.44Zm16.26,2.39a3.18,3.18,0,0,1-.63,1.6,1.9,1.9,0,0,0-.7-.9,2.19,2.19,0,0,0-.71-.33,13,13,0,0,0,1-1.1c.35.15.7.3,1,.47A2.35,2.35,0,0,1,69.74,42.83Zm-8.1-4.93a2.81,2.81,0,0,1,2,1.72l-.18.32-.75,0c-.34-.17-.69-.32-1-.46a10.77,10.77,0,0,0-1.18-.38,2.79,2.79,0,0,0-.83-.57l.69-.72A5.4,5.4,0,0,1,61.64,37.9Zm-3.77-1.55a2.48,2.48,0,0,1,.36.85,12.91,12.91,0,0,0-1.81.53,5.86,5.86,0,0,0-.26-.57,5.71,5.71,0,0,0-.35-.64c.06-.18.13-.36.2-.54A1.39,1.39,0,0,1,57.87,36.35Zm13.16,8c-.42.18-.84.36-1.25.56a4.25,4.25,0,0,0,.8-2l.32.18A4.59,4.59,0,0,1,71,44.39Zm-22.75,5.8a2.65,2.65,0,0,1-.33-.65,22,22,0,0,0,1-2.44,4.11,4.11,0,0,1,.51-.27h.16A14.51,14.51,0,0,0,48.28,50.19Zm4.22-1.11a4,4,0,0,1-1.33-1.84,4.59,4.59,0,0,0,.5.24c.3.13.6.25.91.36,0,.24,0,.48.05.72a4.87,4.87,0,0,1-.12.52Zm6.25,3.54c0-.34,0-.67.08-1a17.41,17.41,0,0,1,.41-2.38c.4.11.8.19,1.2.26a25.35,25.35,0,0,0-.2,2.89A10.73,10.73,0,0,1,58.75,52.62Zm5.57.6c-.43.11-.9.22-1.39.31a7.41,7.41,0,0,1,.3-1.3c.29-.14.56-.29.83-.44a13.38,13.38,0,0,0,1.27-.85c.49.45,1,.91,1.43,1.38a1.59,1.59,0,0,0-.13.13A19.55,19.55,0,0,1,64.32,53.22Zm-1.4,2.14a7.44,7.44,0,0,1-.05-.93q.65-.12,1.26-.27l.94-.25A25.16,25.16,0,0,1,63,55.52Zm3.94-25.14c.55,0,1.1,0,1.64,0L67.27,31C67.14,30.76,67,30.49,66.86,30.22Zm-.28,1.27c-1.25.85-2.45,1.75-3.61,2.72a12.81,12.81,0,0,0-6.21.36,4.59,4.59,0,0,1,.33-.44,10,10,0,0,1,3.83-2.74,16,16,0,0,1,5-1.13C66.14,30.67,66.36,31.08,66.58,31.49ZM48.05,35a3.53,3.53,0,0,1,.46.83,6.44,6.44,0,0,1,.36,1.23A26.16,26.16,0,0,0,49,41.22c0,.24.06.49.1.73s0,.5-.08.75l-.47-.16a24,24,0,0,0-2.86-.75A15.07,15.07,0,0,1,46,39.36,8.64,8.64,0,0,1,48.05,35ZM45.8,45.64c-.09-1-.15-2-.15-3,.73.14,1.46.32,2.17.53l.67.22a10.12,10.12,0,0,0-1.08,2c-.08.19-.14.38-.21.58l-1.35,0C45.83,45.94,45.82,45.79,45.8,45.64Zm1.52,6.73q-.18-.48-.33-1l.48-.86.13.2a3.13,3.13,0,0,0,.45.5c0,.2-.07.4-.1.6s-.07.51-.1.77l-.46,0ZM69.5,54.18a15.94,15.94,0,0,0-1.1-1.36l-.13-.15c.48-.24,1-.5,1.42-.77A11.7,11.7,0,0,1,69.5,54.18Zm.76-19.27a9.29,9.29,0,0,1-.2,2.43c-.29-.76-.59-1.52-.91-2.27a7.21,7.21,0,0,1,1.09-.42A2.28,2.28,0,0,1,70.26,34.91ZM59.48,27.76a13.48,13.48,0,0,0-3.93,2.85A9.59,9.59,0,0,0,53.48,34,5.74,5.74,0,0,0,52,33.24,4.07,4.07,0,0,0,50.34,33a15.51,15.51,0,0,1,1.37-3.36A21.94,21.94,0,0,1,59.48,27.76Zm-13.9,6.16a4,4,0,0,1,.92.06,2.27,2.27,0,0,1,.94.4l-.15.16a9.76,9.76,0,0,0-2.21,4.82,17.29,17.29,0,0,0-.26,2.28,18.28,18.28,0,0,0-3.38-.21A15.74,15.74,0,0,1,45.52,34ZM40.39,46.07A13.31,13.31,0,0,1,37,45.54a6.31,6.31,0,0,1-2-1,7.82,7.82,0,0,1,1.85-1.25,10.38,10.38,0,0,1,3.5-.93A13.27,13.27,0,0,0,40.39,46.07Zm.77-2.65c0-.36.06-.72.11-1.09h1a19.47,19.47,0,0,1,2.53.21A30,30,0,0,0,45,46.1H41.28A11.37,11.37,0,0,1,41.16,43.42Zm3.49,8.16a8.19,8.19,0,0,1,1-1.73c.11.48.24.95.39,1.42-.17.27-.33.53-.51.79A7.77,7.77,0,0,1,44.65,51.58ZM44,54a7.53,7.53,0,0,1,.3-1.64,6.94,6.94,0,0,0,.71.38C44.73,53.21,44.39,53.63,44,54Zm3.68-.59h.06a.37.37,0,0,0,0,.11Zm7.06,4a3.38,3.38,0,0,1-4.44.06,6.42,6.42,0,0,1-1.1-1.17,29.51,29.51,0,0,0,4.52-4.69,5.37,5.37,0,0,0,2,2.06,15.58,15.58,0,0,0-.61,3.17c0,.09,0,.17,0,.26S54.89,57.38,54.78,57.48Zm14.11,3.67a14.29,14.29,0,0,1-1.54.84l-.66-.42a9.12,9.12,0,0,1-1.22-1A6.69,6.69,0,0,0,68.87,58a9.29,9.29,0,0,0,.93-1.73,7.55,7.55,0,0,1,.94,3.41A8.63,8.63,0,0,1,68.89,61.15Zm-.58,1.33A11.53,11.53,0,0,0,70.62,61a4.76,4.76,0,0,1-.91,2A9.71,9.71,0,0,1,68.31,62.48Zm4.48-7.94a8.75,8.75,0,0,1-1.2,4l-.08.12a9.78,9.78,0,0,0-1.35-3.52,11.76,11.76,0,0,0,.37-3.79,20,20,0,0,0,2-1.51A21.68,21.68,0,0,1,72.79,54.54Zm2-8.69.08.06-.34.5a16.22,16.22,0,0,1-1.46,1.76c-.09-.51-.19-1-.3-1.52a14.11,14.11,0,0,0,1.6-1.15ZM119,31.48a9.86,9.86,0,0,1-10.72,3c-3.8-1.35-6.23-5-9.24-7.46a13.21,13.21,0,0,0-5.64-2.89A21.58,21.58,0,0,0,86.24,24a44.76,44.76,0,0,0-12.38,3.42c-1.2.53-2.37,1.11-3.51,1.73a17.12,17.12,0,0,0-2.13-1,1.29,1.29,0,0,1-.17-.16,5.72,5.72,0,0,0,3.19-1.32.43.43,0,0,0-.19-.72,18.68,18.68,0,0,0-7,.15A9.78,9.78,0,0,0,62.78,25,6.87,6.87,0,0,0,55,24.91,11.39,11.39,0,0,0,51.07,29a20.88,20.88,0,0,0-2.62,1.46,20.29,20.29,0,0,0-3.28,2.64h-.08a16.85,16.85,0,0,0-6.49,2.54,19,19,0,0,0-2.81,2.17,11,11,0,0,0-2.24,2.67,3.64,3.64,0,0,0,.28,4.07,8.62,8.62,0,0,0-1.26,1.83,12.24,12.24,0,0,0-1.17,5.91,26.14,26.14,0,0,0,1,6.15,5.94,5.94,0,0,0,1.29,2.78,3.63,3.63,0,0,0,2.87.91,18.28,18.28,0,0,0,5.83-1.61,27.05,27.05,0,0,0,5.18-2.88l.37-.27a14.12,14.12,0,0,0,.93,3.37,8,8,0,0,0,2.56,3.36,7.82,7.82,0,0,0,3.81,1.43,18.58,18.58,0,0,0,7.52-1,6.79,6.79,0,0,0,3,.91,5.72,5.72,0,0,0,3.59-.94A4.85,4.85,0,0,0,70,64a14,14,0,0,0,5.25.17c2.7-.41,5.92-1.54,7.39-4.05,1.65-2.83.23-6.17-1.46-8.6A32.4,32.4,0,0,0,76,45.73a10.73,10.73,0,0,0,1.46-5c0-.15,0-.29,0-.44a6.93,6.93,0,0,0,0-1.82,7,7,0,0,0,2.13-2.14.9.9,0,0,0,.24-.76,4.57,4.57,0,0,0-.46-.84,8.86,8.86,0,0,0-1-1.35,12.32,12.32,0,0,0-6.18-3.4c-.31-.08-.63-.15-.94-.21a.05.05,0,0,0,0,0,43.77,43.77,0,0,1,13.52-4.58,27.64,27.64,0,0,1,6.48-.41,12.31,12.31,0,0,1,5.93,2,28.47,28.47,0,0,1,4.17,3.67c2.56,2.56,5.28,5.09,9,5.49a10.72,10.72,0,0,0,9.29-3.75C120,31.67,119.36,31.05,119,31.48Z" transform="translate(0 0)"/><path class="cls-7" d="M119.29,31.82S128.78,21,132.37,15.87c3.46-4.89,18.29-22.78,43.06-5.21" transform="translate(0 0)"/><path class="cls-4" d="M89.22,58.21a33.07,33.07,0,0,0-4.06-11L25.58,56a33.28,33.28,0,0,0-1,8c0,.18,0,.36,0,.54,0,.82.05,1.64.12,2.44.15,2,.41,4.26.68,6.67.06.53.11,1.06.17,1.59a126.68,126.68,0,0,1,1,13.42V116H64.76V108.7a5.92,5.92,0,0,1,5.88-5.94H81.31a5.06,5.06,0,0,0,5-5.09v-16l5.84-1.93L89.58,60.82c-.09-.88-.21-1.76-.36-2.61" transform="translate(0 0)"/></g></g></g></svg>