<?xml version="1.0" encoding="UTF-8"?>
<svg width="240px" height="334px" viewBox="0 0 240 334" version="1.1" xmlns="http://www.w3.org/2000/svg" xmlns:xlink="http://www.w3.org/1999/xlink">
    <!-- Generator: Sketch 63.1 (92452) - https://sketch.com -->
    <title>AR Section Icons</title>
    <desc>Created with Sketch.</desc>
    <g id="Page-1" stroke="none" stroke-width="1" fill="none" fill-rule="evenodd">
        <g id="Research" transform="translate(1.000000, 1.000000)">
            <g id="Group" transform="translate(30.000000, 8.000000)" fill-rule="nonzero">
                <path d="M58.11,115.98 C81.3783072,115.979994 102.354713,101.961364 111.255367,80.4627023 C120.156021,58.9640402 115.227518,34.2205273 98.7686186,17.7730734 C82.309719,1.32561941 57.5627836,-3.58566937 36.0703185,5.32993835 C14.5778533,14.2455461 0.57381898,35.2316985 0.589985993,58.5 C0.589985993,90.2674188 26.3425812,116.02 58.11,116.02" id="Circle" fill="#525A5D"></path>
                <path d="M44.23,20.04 C30.7025469,26.5834525 23.2850244,41.4226045 26.17,56.17 L76.31,22.5 C66.8162326,16.0260491 54.5937054,15.0964055 44.23,20.06" id="Scalp" fill="#0F070C"></path>
            </g>
            <g id="Bulb" transform="translate(70.000000, 17.000000)" stroke="#FFFFFF" stroke-width="2">
                <path d="M9.62,33.63 L21.01,33.63 C21.62,29.63 23.6,27.77 25.7,25.79 C26.31,25.22 26.95,24.62 27.54,23.98 C29.45,21.71 30.27,19.19 30.27,15.52 C30.0603703,7.41665412 23.4310569,0.956619968 15.325,0.956619968 C7.21894306,0.956619968 0.589629664,7.41665412 0.38,15.52 C0.26851566,18.5559314 1.22380959,21.5350332 3.08,23.94 C3.7,24.62 4.34,25.22 4.96,25.81 C6.37827907,26.9982499 7.57653,28.4266733 8.5,30.03" id="Path" stroke-linecap="round"></path>
                <path d="M10.41,42.92 L12.32,42.92 C13.1113286,43.7237441 14.1920791,44.1763413 15.32,44.1763413 C16.4479209,44.1763413 17.5286714,43.7237441 18.32,42.92 L20.23,42.92" id="Path" stroke-linecap="round" stroke-linejoin="round"></path>
                <line x1="8.72" y1="38.27" x2="21.93" y2="38.27" id="Path" stroke-linecap="round" stroke-linejoin="round"></line>
                <line x1="15.32" y1="33.36" x2="15.32" y2="20.79" id="Path" stroke-linejoin="round"></line>
                <path d="M15.25,20.5 L11.07,16.56 M15.31,20.5 L19.5,16.59" id="Shape" stroke-linecap="round" stroke-linejoin="round"></path>
            </g>
            <g id="Rays" transform="translate(0.580000, 0.170000)" stroke="#FFFFFF" stroke-linecap="round" stroke-linejoin="round" stroke-width="1.5">
                <line x1="58.15" y1="32.12" x2="0" y2="32.12" id="Path"></line>
                <line x1="110.55" y1="32.1" x2="168.7" y2="32.1" id="Path"></line>
                <line x1="104.67" y1="17.81" x2="125.76" y2="0" id="Path"></line>
                <line x1="64.57" y1="43.92" x2="46.73" y2="52.64" id="Path"></line>
                <line x1="104.13" y1="43.89" x2="121.97" y2="52.62" id="Path"></line>
                <line x1="64.03" y1="17.81" x2="47.11" y2="2.88" id="Path"></line>
                <line x1="84.35" y1="10.64" x2="84.35" y2="0.19" id="Path"></line>
            </g>
            <g id="Group" transform="translate(50.000000, 56.000000)">
                <path d="M35.59,67.98 L35.59,151.42 C35.59,151.42 35.9,173.83 55.49,173.02 C74.76,172.21 75.02,152.78 71.79,137.74 C66.38,112.54 14.93,108.94 2.94,166.54 C-9.05,224.14 34.29,274.5 60.5,275.26 C86.71,276.02 188.95,275.26 188.95,275.26" id="Strand" stroke="#FFFFFF" stroke-width="2"></path>
                <path d="M69.81,11.14 C69.1220653,7.26093828 67.7471642,3.53583701 65.75,0.14 L6.17,8.97 C5.51447496,11.5864333 5.17869009,14.2727123 5.17,16.97 C5.17,17.14 5.17,17.32 5.17,17.5 C5.17,18.33 5.17,19.15 5.29,19.95 C5.44,21.95 5.7,24.2 5.97,26.62 C6.03,27.14 6.09,27.67 6.15,28.21 C6.70418528,32.6633448 7.02129916,37.1429957 7.1,41.63 L7.1,68.93 L45.32,68.93 L45.32,61.58 C45.3089061,58.318235 47.9382905,55.6620202 51.2,55.64 L61.9,55.64 C64.6789114,55.6070687 66.9111797,53.3390841 66.9,50.56 L66.9,34.56 L72.74,32.64 L70.15,13.73 C70.06,12.85 69.94,11.97 69.79,11.11" id="Face" fill="#0F070C" fill-rule="nonzero"></path>
            </g>
        </g>
    </g>
</svg>