<svg xmlns="http://www.w3.org/2000/svg" viewBox="0 0 239.12 333.15"><defs><style>.cls-1,.cls-4,.cls-5,.cls-6{fill:none;stroke:#fff;}.cls-1,.cls-4{stroke-linecap:round;}.cls-1,.cls-4,.cls-5{stroke-linejoin:round;}.cls-1{stroke-width:1.5px;}.cls-2{fill:#525a5d;}.cls-3{fill:#0f070c;}.cls-4,.cls-5,.cls-6{stroke-width:2px;}</style></defs><title>Research</title><g id="Layer_2" data-name="Layer 2"><g id="Layer_1-2" data-name="Layer 1"><line class="cls-1" x1="58.9" y1="32.87" x2="0.75" y2="32.87"/><line class="cls-1" x1="105.42" y1="18.56" x2="126.5" y2="0.75"/><path class="cls-2" d="M88.28,124.55A57.52,57.52,0,1,0,30.76,67a57.52,57.52,0,0,0,57.52,57.52"/><path class="cls-3" d="M74.4,28.61A33.1,33.1,0,0,0,56.33,64.75l50.15-33.69A32.25,32.25,0,0,0,74.4,28.61"/><line class="cls-4" x1="78.89" y1="55.85" x2="92.1" y2="55.85"/><line class="cls-5" x1="85.49" y1="50.93" x2="85.49" y2="38.36"/><path class="cls-4" d="M85.42,38.11l-4.19-3.94m4.25,3.94,4.19-3.94"/><line class="cls-1" x1="111.3" y1="32.84" x2="169.45" y2="32.84"/><line class="cls-1" x1="65.32" y1="44.66" x2="47.48" y2="53.39"/><line class="cls-1" x1="104.88" y1="44.63" x2="122.72" y2="53.36"/><line class="cls-1" x1="64.78" y1="18.56" x2="47.86" y2="3.63"/><line class="cls-1" x1="85.1" y1="11.39" x2="85.1" y2="0.94"/><path class="cls-6" d="M85.76,124.55V208s.3,22.42,19.9,21.6c19.27-.8,19.53-20.24,16.3-35.28-5.41-25.2-56.86-28.8-68.85,28.8s31.35,108,57.56,108.72,128.45,0,128.45,0"/><path class="cls-3" d="M120,67.72a32.87,32.87,0,0,0-4.07-11L56.34,65.55a33.28,33.28,0,0,0-1,8v.54c0,.82.06,1.64.13,2.44.15,2,.4,4.26.68,6.67,0,.53.11,1.06.17,1.59a126.68,126.68,0,0,1,1,13.42v27.3H95.52v-7.34a5.91,5.91,0,0,1,5.87-5.94h10.68a5.06,5.06,0,0,0,5-5.09v-16l5.84-1.93-2.59-18.91c-.09-.88-.21-1.76-.36-2.61"/></g></g></svg>